<?xml version="1.0" encoding="us-ascii" standalone="no"?><svg xmlns="http://www.w3.org/2000/svg" xmlns:xlink="http://www.w3.org/1999/xlink" contentStyleType="text/css" height="909px" preserveAspectRatio="none" style="width:856px;height:909px;background:#FFFFFF;" version="1.1" viewBox="0 0 856 909" width="856px" zoomAndPan="magnify"><defs/><g><ellipse cx="409" cy="20" fill="#222222" rx="10" ry="10" style="stroke:#222222;stroke-width:1.0;"/><rect fill="#F1F1F1" height="33.9688" rx="12.5" ry="12.5" style="stroke:#181818;stroke-width:0.5;" width="232" x="293" y="50"/><text fill="#000000" font-family="sans-serif" font-size="12" lengthAdjust="spacing" textLength="212" x="303" y="71.1387">&#23558;&#36215;&#28857;&#32467;&#28857;&#32622;&#20110; open list&#65288;&#20248;&#20808;&#38431;&#21015;&#65289;</text><rect fill="#F1F1F1" height="33.9688" rx="12.5" ry="12.5" style="stroke:#181818;stroke-width:0.5;" width="236" x="291" y="164.7734"/><text fill="#000000" font-family="sans-serif" font-size="12" lengthAdjust="spacing" textLength="216" x="301" y="185.9121">&#21462;&#20986; open list &#30340;&#22534;&#39030;&#20803;&#32032;&#20316;&#20026;&#24403;&#21069;&#32467;&#28857;</text><rect fill="#F1F1F1" height="33.9688" rx="12.5" ry="12.5" style="stroke:#181818;stroke-width:0.5;" width="173" x="322.5" y="218.7422"/><text fill="#000000" font-family="sans-serif" font-size="12" lengthAdjust="spacing" textLength="153" x="332.5" y="239.8809">&#35774;&#32622;&#24403;&#21069;&#32467;&#28857;&#29366;&#24577;&#20026; closed</text><polygon fill="#F1F1F1" points="365,272.7109,453,272.7109,465,284.7109,453,296.7109,365,296.7109,353,284.7109,365,272.7109" style="stroke:#181818;stroke-width:0.5;"/><text fill="#000000" font-family="sans-serif" font-size="11" lengthAdjust="spacing" textLength="88" x="365" y="288.519">&#24403;&#21069;&#32467;&#28857;&#26159;&#32456;&#28857;&#65311;</text><text fill="#000000" font-family="sans-serif" font-size="11" lengthAdjust="spacing" textLength="21" x="332" y="282.1167">yes</text><rect fill="#F1F1F1" height="47.9375" rx="12.5" ry="12.5" style="stroke:#181818;stroke-width:0.5;" width="236" x="45" y="306.7109"/><text fill="#000000" font-family="sans-serif" font-size="12" lengthAdjust="spacing" textLength="72" x="55" y="327.8496">&#20174;&#32456;&#28857;&#24320;&#22987;&#65292;</text><text fill="#000000" font-family="sans-serif" font-size="12" lengthAdjust="spacing" textLength="216" x="55" y="341.8184">&#20351;&#29992;&#22836;&#25554;&#27861;&#36880;&#20010;&#23558;&#29238;&#32467;&#28857;&#32622;&#20110;&#21452;&#31471;&#38431;&#21015;&#20013;</text><rect fill="#F1F1F1" height="33.9688" rx="12.5" ry="12.5" style="stroke:#181818;stroke-width:0.5;" width="140" x="93" y="388.6172"/><text fill="#000000" font-family="sans-serif" font-size="12" lengthAdjust="spacing" textLength="120" x="103" y="409.7559">&#36820;&#22238;&#21452;&#31471;&#38431;&#21015;&#20013;&#30340;&#36335;&#24452;</text><ellipse cx="163" cy="468.5859" fill="none" rx="11" ry="11" style="stroke:#222222;stroke-width:1.0;"/><ellipse cx="163" cy="468.5859" fill="#222222" rx="6" ry="6" style="stroke:#111111;stroke-width:1.0;"/><rect fill="#F1F1F1" height="33.9688" rx="12.5" ry="12.5" style="stroke:#181818;stroke-width:0.5;" width="152" x="588.5" y="306.7109"/><text fill="#000000" font-family="sans-serif" font-size="12" lengthAdjust="spacing" textLength="132" x="598.5" y="327.8496">&#33719;&#24471;&#24403;&#21069;&#32467;&#28857;&#30340;&#37051;&#23621;&#32467;&#28857;</text><rect fill="#F1F1F1" height="33.9688" rx="12.5" ry="12.5" style="stroke:#181818;stroke-width:0.5;" width="216" x="556.5" y="471.0508"/><text fill="#000000" font-family="sans-serif" font-size="12" lengthAdjust="spacing" textLength="196" x="566.5" y="492.1895">&#35745;&#31639;&#20174;&#24403;&#21069;&#32467;&#28857;&#21040;&#37051;&#23621;&#32467;&#28857;&#30340;&#26032; g &#20540;</text><rect fill="#F1F1F1" height="33.9688" rx="12.5" ry="12.5" style="stroke:#181818;stroke-width:0.5;" width="199" x="565" y="573.4219"/><text fill="#000000" font-family="sans-serif" font-size="12" lengthAdjust="spacing" textLength="179" x="575" y="594.5605">&#35774;&#32622;&#37051;&#23621;&#32467;&#28857;&#30340; g, h, &#29238;&#32467;&#28857;&#25351;&#38024;</text><rect fill="#F1F1F1" height="33.9688" rx="12.5" ry="12.5" style="stroke:#181818;stroke-width:0.5;" width="163" x="583" y="627.3906"/><text fill="#000000" font-family="sans-serif" font-size="12" lengthAdjust="spacing" textLength="143" x="593" y="648.5293">&#35774;&#32622;&#37051;&#23621;&#32467;&#28857;&#29366;&#24577;&#20026; open</text><path d="M335.5,680.2227 L335.5,765.8867 A0,0 0 0 0 335.5,765.8867 L564.5,765.8867 A0,0 0 0 0 564.5,765.8867 L564.5,727.0547 L584.5,723.0547 L564.5,719.0547 L564.5,690.2227 L554.5,680.2227 L335.5,680.2227 A0,0 0 0 0 335.5,680.2227 " fill="#FEFFDD" style="stroke:#181818;stroke-width:0.5;"/><path d="M554.5,680.2227 L554.5,690.2227 L564.5,690.2227 L554.5,680.2227 " fill="#FEFFDD" style="stroke:#181818;stroke-width:0.5;"/><text fill="#000000" font-family="sans-serif" font-size="13" lengthAdjust="spacing" textLength="104" x="341.5" y="697.2896">&#22240;&#20026;&#26356;&#26032;&#20102;&#32467;&#28857;&#65292;</text><text fill="#000000" font-family="sans-serif" font-size="13" lengthAdjust="spacing" textLength="208" x="341.5" y="712.4224">&#25152;&#20197;&#38656;&#35201;&#23558;&#32467;&#28857;&#20877;&#27425;&#21152;&#20837;&#20248;&#20808;&#38431;&#21015;&#65292;</text><text fill="#000000" font-family="sans-serif" font-size="13" lengthAdjust="spacing" textLength="169" x="341.5" y="727.5552">&#21542;&#21017;&#22914;&#26524;&#32467;&#28857;&#30340; f &#20540;&#21464;&#23567;&#20102;&#65292;</text><text fill="#000000" font-family="sans-serif" font-size="13" lengthAdjust="spacing" textLength="130" x="341.5" y="742.688">&#21487;&#33021;&#19981;&#20250;&#34987;&#21450;&#26102;&#24377;&#20986;&#65292;</text><text fill="#000000" font-family="sans-serif" font-size="13" lengthAdjust="spacing" textLength="130" x="341.5" y="757.8208">&#23548;&#33268;&#23547;&#24471;&#30340;&#36335;&#24452;&#38750;&#26368;&#20248;</text><rect fill="#F1F1F1" height="33.9688" rx="12.5" ry="12.5" style="stroke:#181818;stroke-width:0.5;" width="160" x="584.5" y="706.0703"/><text fill="#000000" font-family="sans-serif" font-size="12" lengthAdjust="spacing" textLength="140" x="594.5" y="727.209">&#23558;&#37051;&#23621;&#32467;&#28857;&#21152;&#20837; open list</text><polygon fill="#F1F1F1" points="559,525.0195,770,525.0195,782,537.0195,770,549.0195,559,549.0195,547,537.0195,559,525.0195" style="stroke:#181818;stroke-width:0.5;"/><text fill="#000000" font-family="sans-serif" font-size="11" lengthAdjust="spacing" textLength="21" x="668.5" y="559.23">yes</text><text fill="#000000" font-family="sans-serif" font-size="11" lengthAdjust="spacing" textLength="211" x="559" y="540.8276">&#26032; g &#20540;&#26356;&#23567;&#25110;&#32773;&#37051;&#23621;&#32467;&#28857;&#19981;&#22312; open list&#65311;</text><polygon fill="#F1F1F1" points="664.5,785.8867,676.5,797.8867,664.5,809.8867,652.5,797.8867,664.5,785.8867" style="stroke:#181818;stroke-width:0.5;"/><polygon fill="#F1F1F1" points="572.5,422.6484,756.5,422.6484,768.5,434.6484,756.5,446.6484,572.5,446.6484,560.5,434.6484,572.5,422.6484" style="stroke:#181818;stroke-width:0.5;"/><text fill="#000000" font-family="sans-serif" font-size="11" lengthAdjust="spacing" textLength="21" x="668.5" y="456.8589">yes</text><text fill="#000000" font-family="sans-serif" font-size="11" lengthAdjust="spacing" textLength="184" x="572.5" y="438.4565">&#37051;&#23621;&#32467;&#28857;&#21487;&#34892;&#36208;&#19988;&#29366;&#24577;&#19981;&#20026; closed&#65311;</text><polygon fill="#F1F1F1" points="664.5,829.8867,676.5,841.8867,664.5,853.8867,652.5,841.8867,664.5,829.8867" style="stroke:#181818;stroke-width:0.5;"/><polygon fill="#F1F1F1" points="631.5,374.6484,697.5,374.6484,709.5,386.6484,697.5,398.6484,631.5,398.6484,619.5,386.6484,631.5,374.6484" style="stroke:#181818;stroke-width:0.5;"/><text fill="#000000" font-family="sans-serif" font-size="11" lengthAdjust="spacing" textLength="66" x="631.5" y="390.4565">&#36941;&#21382;&#37051;&#23621;&#32467;&#28857;</text><polygon fill="#F1F1F1" points="366,103.9688,452,103.9688,464,115.9688,452,127.9688,366,127.9688,354,115.9688,366,103.9688" style="stroke:#181818;stroke-width:0.5;"/><text fill="#000000" font-family="sans-serif" font-size="11" lengthAdjust="spacing" textLength="21" x="413" y="138.1792">yes</text><text fill="#000000" font-family="sans-serif" font-size="11" lengthAdjust="spacing" textLength="86" x="366" y="119.7769">open list &#38750;&#31354;&#65311;</text><ellipse cx="24" cy="162.9688" fill="none" rx="11" ry="11" style="stroke:#222222;stroke-width:1.0;"/><ellipse cx="24" cy="162.9688" fill="#222222" rx="6" ry="6" style="stroke:#111111;stroke-width:1.0;"/><line style="stroke:#181818;stroke-width:1.0;" x1="409" x2="409" y1="30" y2="50"/><polygon fill="#181818" points="405,40,409,50,413,40,409,44" style="stroke:#181818;stroke-width:1.0;"/><line style="stroke:#181818;stroke-width:1.0;" x1="409" x2="409" y1="198.7422" y2="218.7422"/><polygon fill="#181818" points="405,208.7422,409,218.7422,413,208.7422,409,212.7422" style="stroke:#181818;stroke-width:1.0;"/><line style="stroke:#181818;stroke-width:1.0;" x1="163" x2="163" y1="354.6484" y2="388.6172"/><polygon fill="#181818" points="159,378.6172,163,388.6172,167,378.6172,163,382.6172" style="stroke:#181818;stroke-width:1.0;"/><line style="stroke:#181818;stroke-width:1.0;" x1="163" x2="163" y1="422.5859" y2="457.5859"/><polygon fill="#181818" points="159,447.5859,163,457.5859,167,447.5859,163,451.5859" style="stroke:#181818;stroke-width:1.0;"/><line style="stroke:#181818;stroke-width:1.0;" x1="664.5" x2="664.5" y1="607.3906" y2="627.3906"/><polygon fill="#181818" points="660.5,617.3906,664.5,627.3906,668.5,617.3906,664.5,621.3906" style="stroke:#181818;stroke-width:1.0;"/><line style="stroke:#181818;stroke-width:1.0;" x1="664.5" x2="664.5" y1="661.3594" y2="706.0703"/><polygon fill="#181818" points="660.5,696.0703,664.5,706.0703,668.5,696.0703,664.5,700.0703" style="stroke:#181818;stroke-width:1.0;"/><line style="stroke:#181818;stroke-width:1.0;" x1="664.5" x2="664.5" y1="549.0195" y2="573.4219"/><polygon fill="#181818" points="660.5,563.4219,664.5,573.4219,668.5,563.4219,664.5,567.4219" style="stroke:#181818;stroke-width:1.0;"/><line style="stroke:#181818;stroke-width:1.0;" x1="782" x2="794" y1="537.0195" y2="537.0195"/><polygon fill="#181818" points="790,660.2227,794,670.2227,798,660.2227,794,664.2227" style="stroke:#181818;stroke-width:1.0;"/><line style="stroke:#181818;stroke-width:1.0;" x1="794" x2="794" y1="537.0195" y2="797.8867"/><line style="stroke:#181818;stroke-width:1.0;" x1="794" x2="676.5" y1="797.8867" y2="797.8867"/><polygon fill="#181818" points="686.5,793.8867,676.5,797.8867,686.5,801.8867,682.5,797.8867" style="stroke:#181818;stroke-width:1.0;"/><line style="stroke:#181818;stroke-width:1.0;" x1="664.5" x2="664.5" y1="740.0391" y2="785.8867"/><polygon fill="#181818" points="660.5,775.8867,664.5,785.8867,668.5,775.8867,664.5,779.8867" style="stroke:#181818;stroke-width:1.0;"/><line style="stroke:#181818;stroke-width:1.0;" x1="664.5" x2="664.5" y1="505.0195" y2="525.0195"/><polygon fill="#181818" points="660.5,515.0195,664.5,525.0195,668.5,515.0195,664.5,519.0195" style="stroke:#181818;stroke-width:1.0;"/><line style="stroke:#181818;stroke-width:1.0;" x1="664.5" x2="664.5" y1="446.6484" y2="471.0508"/><polygon fill="#181818" points="660.5,461.0508,664.5,471.0508,668.5,461.0508,664.5,465.0508" style="stroke:#181818;stroke-width:1.0;"/><line style="stroke:#181818;stroke-width:1.0;" x1="768.5" x2="804" y1="434.6484" y2="434.6484"/><polygon fill="#181818" points="800,625.7383,804,635.7383,808,625.7383,804,629.7383" style="stroke:#181818;stroke-width:1.0;"/><line style="stroke:#181818;stroke-width:1.0;" x1="804" x2="804" y1="434.6484" y2="841.8867"/><line style="stroke:#181818;stroke-width:1.0;" x1="804" x2="676.5" y1="841.8867" y2="841.8867"/><polygon fill="#181818" points="686.5,837.8867,676.5,841.8867,686.5,845.8867,682.5,841.8867" style="stroke:#181818;stroke-width:1.0;"/><line style="stroke:#181818;stroke-width:1.0;" x1="664.5" x2="664.5" y1="809.8867" y2="829.8867"/><polygon fill="#181818" points="660.5,819.8867,664.5,829.8867,668.5,819.8867,664.5,823.8867" style="stroke:#181818;stroke-width:1.0;"/><line style="stroke:#181818;stroke-width:1.0;" x1="664.5" x2="664.5" y1="398.6484" y2="422.6484"/><polygon fill="#181818" points="660.5,412.6484,664.5,422.6484,668.5,412.6484,664.5,416.6484" style="stroke:#181818;stroke-width:1.0;"/><line style="stroke:#181818;stroke-width:1.0;" x1="664.5" x2="664.5" y1="853.8867" y2="863.8867"/><line style="stroke:#181818;stroke-width:1.0;" x1="664.5" x2="822" y1="863.8867" y2="863.8867"/><polygon fill="#181818" points="818,633.7383,822,623.7383,826,633.7383,822,629.7383" style="stroke:#181818;stroke-width:1.0;"/><line style="stroke:#181818;stroke-width:1.0;" x1="822" x2="822" y1="386.6484" y2="863.8867"/><line style="stroke:#181818;stroke-width:1.0;" x1="822" x2="709.5" y1="386.6484" y2="386.6484"/><polygon fill="#181818" points="719.5,382.6484,709.5,386.6484,719.5,390.6484,715.5,386.6484" style="stroke:#181818;stroke-width:1.0;"/><line style="stroke:#181818;stroke-width:1.0;" x1="619.5" x2="303.5" y1="386.6484" y2="386.6484"/><polygon fill="#181818" points="299.5,622.7383,303.5,632.7383,307.5,622.7383,303.5,626.7383" style="stroke:#181818;stroke-width:1.0;"/><line style="stroke:#181818;stroke-width:1.0;" x1="303.5" x2="303.5" y1="386.6484" y2="880.8867"/><line style="stroke:#181818;stroke-width:1.0;" x1="303.5" x2="844" y1="880.8867" y2="880.8867"/><line style="stroke:#181818;stroke-width:1.0;" x1="844" x2="844" y1="115.9688" y2="880.8867"/><line style="stroke:#181818;stroke-width:1.0;" x1="844" x2="464" y1="115.9688" y2="115.9688"/><polygon fill="#181818" points="474,111.9688,464,115.9688,474,119.9688,470,115.9688" style="stroke:#181818;stroke-width:1.0;"/><line style="stroke:#181818;stroke-width:1.0;" x1="664.5" x2="664.5" y1="340.6797" y2="374.6484"/><polygon fill="#181818" points="660.5,364.6484,664.5,374.6484,668.5,364.6484,664.5,368.6484" style="stroke:#181818;stroke-width:1.0;"/><line style="stroke:#181818;stroke-width:1.0;" x1="353" x2="163" y1="284.7109" y2="284.7109"/><line style="stroke:#181818;stroke-width:1.0;" x1="163" x2="163" y1="284.7109" y2="306.7109"/><polygon fill="#181818" points="159,296.7109,163,306.7109,167,296.7109,163,300.7109" style="stroke:#181818;stroke-width:1.0;"/><line style="stroke:#181818;stroke-width:1.0;" x1="465" x2="664.5" y1="284.7109" y2="284.7109"/><line style="stroke:#181818;stroke-width:1.0;" x1="664.5" x2="664.5" y1="284.7109" y2="306.7109"/><polygon fill="#181818" points="660.5,296.7109,664.5,306.7109,668.5,296.7109,664.5,300.7109" style="stroke:#181818;stroke-width:1.0;"/><line style="stroke:#181818;stroke-width:1.0;" x1="409" x2="409" y1="252.7109" y2="272.7109"/><polygon fill="#181818" points="405,262.7109,409,272.7109,413,262.7109,409,266.7109" style="stroke:#181818;stroke-width:1.0;"/><line style="stroke:#181818;stroke-width:1.0;" x1="409" x2="409" y1="127.9688" y2="164.7734"/><polygon fill="#181818" points="405,154.7734,409,164.7734,413,154.7734,409,158.7734" style="stroke:#181818;stroke-width:1.0;"/><line style="stroke:#181818;stroke-width:1.0;" x1="354" x2="24" y1="115.9688" y2="115.9688"/><line style="stroke:#181818;stroke-width:1.0;" x1="24" x2="24" y1="115.9688" y2="151.9688"/><polygon fill="#181818" points="20,141.9688,24,151.9688,28,141.9688,24,145.9688" style="stroke:#181818;stroke-width:1.0;"/><line style="stroke:#181818;stroke-width:1.0;" x1="409" x2="409" y1="83.9688" y2="103.9688"/><polygon fill="#181818" points="405,93.9688,409,103.9688,413,93.9688,409,97.9688" style="stroke:#181818;stroke-width:1.0;"/><!--SRC=[ZLJDRjf04BxxAVP8f3n1U9ggCG49GLHRgdepX1z30KS91GeqWQgXQTDYgX8Ws92NsTcrJxn2nxYn5mgeSx2yEpFVVFljp2hggpUgT0AZWlCuvTadRbrxtyMGpciaVIwdI3AXg2jRftOByhhRkWMzkR9BKUbjF96KIII88Uwd6_vjlh9lZqX28P5tid8a4RGJC1fGd8TeXBTpq2ku_GdaB_YuHnTTEfl3uXfALRz-r4zqXaja8ZfuUSAq34QJrycq8f_wWOaOYOXHh6LoIyUVDHarZdL3EcjaQjNy2B0r-Ff-PLS27rqyy_ezV1apuuhz_k1gbtJs7VNX-aGK1umAVp1zFUZiPpJ4TfxhqBdPykEHdQa9ormOgAZfy_L2JYgoa5wRmhAvSUXspirQy2ilYkFPtojmCrMe5SIGyAGlyeXUC4odNt4UHtHMVn6q6cgwJxIGuR3FXqsKK2G9-aYiWPnPOqJE26Xsz1y8Zr7WPfqnZ0ocDnmjBq8WAUZUYqruc9VGCbjCoDanYH-Ju0PPfUXUwT7_HWYQpkEo9mqxP4FZSW_oTo7vtLcfj2gJf1nJTtezWquF2wD4A1UT5tnmiLstZPKqQjsvNSqPPBokzTaKgkn7t-UqESZxWU1o0Ff766JPJJTKCkRT61Wjl36aSp0Vk-nYuNMMtNO-Fu1HPiq9s4_u51nCCssdE0RJmY48XWQV5jRLaFdED3brwWafxTXFnAJzExXQJv0Kke8jRpZ_0000]--></g></svg>