<?xml version="1.0" encoding="us-ascii" standalone="no"?><svg xmlns="http://www.w3.org/2000/svg" xmlns:xlink="http://www.w3.org/1999/xlink" contentStyleType="text/css" height="2185px" preserveAspectRatio="none" style="width:1094px;height:2185px;background:#FFFFFF;" version="1.1" viewBox="0 0 1094 2185" width="1094px" zoomAndPan="magnify"><defs/><g><g id="cp"><rect fill="#FFFFFF" height="106.1406" rx="12.5" ry="12.5" style="stroke:#181818;stroke-width:0.5;" width="163" x="112" y="21"/><line style="stroke:#181818;stroke-width:0.5;" x1="112" x2="275" y1="47.2969" y2="47.2969"/><text fill="#000000" font-family="sans-serif" font-size="14" lengthAdjust="spacing" textLength="120" x="133.5" y="38.9951">Chip Parameters</text><text fill="#000000" font-family="sans-serif" font-size="12" lengthAdjust="spacing" textLength="85" x="117" y="63.4355">Target market</text><text fill="#000000" font-family="sans-serif" font-size="12" lengthAdjust="spacing" textLength="130" x="117" y="77.4043">Desired performance</text><text fill="#000000" font-family="sans-serif" font-size="12" lengthAdjust="spacing" textLength="84" x="117" y="91.373">Power targets</text><text fill="#000000" font-family="sans-serif" font-size="12" lengthAdjust="spacing" textLength="143" x="117" y="105.3418">Interface IP requirments</text><text fill="#000000" font-family="sans-serif" font-size="12" lengthAdjust="spacing" textLength="64" x="117" y="119.3105">Use cases</text></g><g id="ss"><rect fill="#FFFFFF" height="134.0781" rx="12.5" ry="12.5" style="stroke:#181818;stroke-width:0.5;" width="242" x="452.5" y="7"/><line style="stroke:#181818;stroke-width:0.5;" x1="452.5" x2="694.5" y1="33.2969" y2="33.2969"/><text fill="#000000" font-family="sans-serif" font-size="14" lengthAdjust="spacing" textLength="160" x="493.5" y="24.9951">System Specifications</text><text fill="#000000" font-family="sans-serif" font-size="12" lengthAdjust="spacing" textLength="147" x="457.5" y="49.4355">Functional Requirements</text><text fill="#000000" font-family="sans-serif" font-size="12" lengthAdjust="spacing" textLength="124" x="457.5" y="63.4043">Performance Metrics</text><text fill="#000000" font-family="sans-serif" font-size="12" lengthAdjust="spacing" textLength="120" x="457.5" y="77.373">Interface Definitions</text><text fill="#000000" font-family="sans-serif" font-size="12" lengthAdjust="spacing" textLength="182" x="457.5" y="91.3418">Hardware Resource Allocation</text><text fill="#000000" font-family="sans-serif" font-size="12" lengthAdjust="spacing" textLength="222" x="457.5" y="105.3105">Reliability and Security Requirements</text><text fill="#000000" font-family="sans-serif" font-size="12" lengthAdjust="spacing" textLength="67" x="457.5" y="119.2793">Constraints</text><text fill="#000000" font-family="sans-serif" font-size="12" lengthAdjust="spacing" textLength="123" x="457.5" y="133.248">Verification Methods</text></g><g id="arc"><rect fill="#FFFFFF" height="78.2031" rx="12.5" ry="12.5" style="stroke:#181818;stroke-width:0.5;" width="227" x="860" y="35"/><line style="stroke:#181818;stroke-width:0.5;" x1="860" x2="1087" y1="61.2969" y2="61.2969"/><text fill="#000000" font-family="sans-serif" font-size="14" lengthAdjust="spacing" textLength="91" x="928" y="52.9951">Architecture</text><text fill="#000000" font-family="sans-serif" font-size="12" lengthAdjust="spacing" textLength="106" x="865" y="77.4355">Module Hierarchy</text><text fill="#000000" font-family="sans-serif" font-size="12" lengthAdjust="spacing" textLength="113" x="865" y="91.4043">Interface Definition</text><text fill="#000000" font-family="sans-serif" font-size="12" lengthAdjust="spacing" textLength="207" x="865" y="105.373">Results of System-level Simulation</text></g><g id="elem_c_fd"><polygon fill="#F1F1F1" points="773.5,202,785.5,214,773.5,226,761.5,214,773.5,202" style="stroke:#181818;stroke-width:0.5;"/></g><g id="rtl"><rect fill="#FFFFFF" height="50.2656" rx="12.5" ry="12.5" style="stroke:#181818;stroke-width:0.5;" width="50" x="748.5" y="331"/><line style="stroke:#181818;stroke-width:0.5;" x1="748.5" x2="798.5" y1="357.2969" y2="357.2969"/><text fill="#000000" font-family="sans-serif" font-size="14" lengthAdjust="spacing" textLength="27" x="760" y="348.9951">RTL</text><text fill="#000000" font-family="sans-serif" font-size="12" lengthAdjust="spacing" textLength="24" x="753.5" y="373.4355">HDL</text></g><g id="cf"><rect fill="#FFFFFF" height="50.2656" rx="12.5" ry="12.5" style="stroke:#181818;stroke-width:0.5;" width="125" x="289" y="331"/><line style="stroke:#181818;stroke-width:0.5;" x1="289" x2="414" y1="357.2969" y2="357.2969"/><text fill="#000000" font-family="sans-serif" font-size="14" lengthAdjust="spacing" textLength="105" x="299" y="348.9951">Constraint File</text><text fill="#000000" font-family="sans-serif" font-size="12" lengthAdjust="spacing" textLength="66" x="294" y="373.4355">HDL or TCL</text></g><g id="scl"><rect fill="#FFFFFF" height="106.1406" rx="12.5" ry="12.5" style="stroke:#181818;stroke-width:0.5;" width="247" x="7" y="303"/><line style="stroke:#181818;stroke-width:0.5;" x1="7" x2="254" y1="329.2969" y2="329.2969"/><text fill="#000000" font-family="sans-serif" font-size="14" lengthAdjust="spacing" textLength="150" x="55.5" y="320.9951">Standard Cell Library</text><text fill="#000000" font-family="sans-serif" font-size="12" lengthAdjust="spacing" textLength="96" x="12" y="345.4355">Basic logic gate</text><text fill="#000000" font-family="sans-serif" font-size="12" lengthAdjust="spacing" textLength="116" x="12" y="359.4043">Sequential element</text><text fill="#000000" font-family="sans-serif" font-size="12" lengthAdjust="spacing" textLength="73" x="12" y="373.373">Storage unit</text><text fill="#000000" font-family="sans-serif" font-size="12" lengthAdjust="spacing" textLength="86" x="12" y="387.3418">Digital module</text><text fill="#000000" font-family="sans-serif" font-size="12" lengthAdjust="spacing" textLength="227" x="12" y="401.3105">Other commonly used functional units</text></g><rect fill="#FFFFFF" height="40" rx="12.5" ry="12.5" style="stroke:#181818;stroke-width:0.5;" width="264" x="449.5" y="336"/><text fill="#000000" font-family="sans-serif" font-size="14" lengthAdjust="spacing" textLength="254" x="454.5" y="360.8467">Technology Library and Constraints</text><g id="elem_c_ls"><polygon fill="#F1F1F1" points="465.5,470,477.5,482,465.5,494,453.5,482,465.5,470" style="stroke:#181818;stroke-width:0.5;"/></g><g id="ttl"><rect fill="#FFFFFF" height="106.1406" rx="12.5" ry="12.5" style="stroke:#181818;stroke-width:0.5;" width="209" x="577" y="571"/><line style="stroke:#181818;stroke-width:0.5;" x1="577" x2="786" y1="597.2969" y2="597.2969"/><text fill="#000000" font-family="sans-serif" font-size="14" lengthAdjust="spacing" textLength="189" x="587" y="588.9951">Target Technology Library</text><text fill="#000000" font-family="sans-serif" font-size="12" lengthAdjust="spacing" textLength="129" x="582" y="613.4355">Physical Design Rules</text><text fill="#000000" font-family="sans-serif" font-size="12" lengthAdjust="spacing" textLength="67" x="582" y="627.4043">Cell Library</text><text fill="#000000" font-family="sans-serif" font-size="12" lengthAdjust="spacing" textLength="95" x="582" y="641.373">Timing Libraries</text><text fill="#000000" font-family="sans-serif" font-size="12" lengthAdjust="spacing" textLength="93" x="582" y="655.3418">Power Libraries</text><text fill="#000000" font-family="sans-serif" font-size="12" lengthAdjust="spacing" textLength="93" x="582" y="669.3105">Model Libraries</text></g><g id="gn"><rect fill="#FFFFFF" height="78.2031" rx="12.5" ry="12.5" style="stroke:#181818;stroke-width:0.5;" width="153" x="389" y="585"/><line style="stroke:#181818;stroke-width:0.5;" x1="389" x2="542" y1="611.2969" y2="611.2969"/><text fill="#000000" font-family="sans-serif" font-size="14" lengthAdjust="spacing" textLength="127" x="402" y="602.9951">Gate-level Netlist</text><text fill="#000000" font-family="sans-serif" font-size="12" lengthAdjust="spacing" textLength="70" x="394" y="627.4355">Logic gates</text><text fill="#000000" font-family="sans-serif" font-size="12" lengthAdjust="spacing" textLength="133" x="394" y="641.4043">Input and output ports</text><text fill="#000000" font-family="sans-serif" font-size="12" lengthAdjust="spacing" textLength="100" x="394" y="655.373">Interconnections</text></g><g id="elem_c_tm"><polygon fill="#F1F1F1" points="594.5,754,606.5,766,594.5,778,582.5,766,594.5,754" style="stroke:#181818;stroke-width:0.5;"/></g><g id="pc"><rect fill="#FFFFFF" height="106.1406" rx="12.5" ry="12.5" style="stroke:#181818;stroke-width:0.5;" width="209" x="169" y="846"/><line style="stroke:#181818;stroke-width:0.5;" x1="169" x2="378" y1="872.2969" y2="872.2969"/><text fill="#000000" font-family="sans-serif" font-size="14" lengthAdjust="spacing" textLength="144" x="201.5" y="863.9951">Physical Constraints</text><text fill="#000000" font-family="sans-serif" font-size="12" lengthAdjust="spacing" textLength="132" x="174" y="888.4355">Placement Constraints</text><text fill="#000000" font-family="sans-serif" font-size="12" lengthAdjust="spacing" textLength="104" x="174" y="902.4043">Clock Constraints</text><text fill="#000000" font-family="sans-serif" font-size="12" lengthAdjust="spacing" textLength="115" x="174" y="916.373">Routing Constraints</text><text fill="#000000" font-family="sans-serif" font-size="12" lengthAdjust="spacing" textLength="108" x="174" y="930.3418">Power Constraints</text><text fill="#000000" font-family="sans-serif" font-size="12" lengthAdjust="spacing" textLength="189" x="174" y="944.3105">Physical Verification Constraints</text></g><g id="ti"><rect fill="#FFFFFF" height="120.1094" rx="12.5" ry="12.5" style="stroke:#181818;stroke-width:0.5;" width="163" x="426" y="839"/><line style="stroke:#181818;stroke-width:0.5;" x1="426" x2="589" y1="865.2969" y2="865.2969"/><text fill="#000000" font-family="sans-serif" font-size="14" lengthAdjust="spacing" textLength="138" x="438.5" y="856.9951">Timing Information</text><text fill="#000000" font-family="sans-serif" font-size="12" lengthAdjust="spacing" textLength="101" x="431" y="881.4355">Clock Frequency</text><text fill="#000000" font-family="sans-serif" font-size="12" lengthAdjust="spacing" textLength="94" x="431" y="895.4043">Maximum Delay</text><text fill="#000000" font-family="sans-serif" font-size="12" lengthAdjust="spacing" textLength="67" x="431" y="909.373">Constraints</text><text fill="#000000" font-family="sans-serif" font-size="12" lengthAdjust="spacing" textLength="95" x="431" y="923.3418">Constraint Paths</text><text fill="#000000" font-family="sans-serif" font-size="12" lengthAdjust="spacing" textLength="132" x="431" y="937.3105">Constraint Boundaries</text><text fill="#000000" font-family="sans-serif" font-size="12" lengthAdjust="spacing" textLength="143" x="431" y="951.2793">Timing Analysis Reports</text></g><g id="drcrule"><rect fill="#FFFFFF" height="120.1094" rx="12.5" ry="12.5" style="stroke:#181818;stroke-width:0.5;" width="160" x="640.5" y="839"/><line style="stroke:#181818;stroke-width:0.5;" x1="640.5" x2="800.5" y1="865.2969" y2="865.2969"/><text fill="#000000" font-family="sans-serif" font-size="14" lengthAdjust="spacing" textLength="66" x="687.5" y="856.9951">DRC Rule</text><text fill="#000000" font-family="sans-serif" font-size="12" lengthAdjust="spacing" textLength="77" x="645.5" y="881.4355">Spacing Rule</text><text fill="#000000" font-family="sans-serif" font-size="12" lengthAdjust="spacing" textLength="101" x="645.5" y="895.4043">Tolerance Offset</text><text fill="#000000" font-family="sans-serif" font-size="12" lengthAdjust="spacing" textLength="96" x="645.5" y="909.373">Abnormal Areas</text><text fill="#000000" font-family="sans-serif" font-size="12" lengthAdjust="spacing" textLength="98" x="645.5" y="923.3418">Metal Layer Rule</text><text fill="#000000" font-family="sans-serif" font-size="12" lengthAdjust="spacing" textLength="136" x="645.5" y="937.3105">Device Placement Rule</text><text fill="#000000" font-family="sans-serif" font-size="12" lengthAdjust="spacing" textLength="140" x="645.5" y="951.2793">Power and Ground Rule</text></g><g id="pn"><rect fill="#FFFFFF" height="106.1406" rx="12.5" ry="12.5" style="stroke:#181818;stroke-width:0.5;" width="202" x="787.5" y="989"/><line style="stroke:#181818;stroke-width:0.5;" x1="787.5" x2="989.5" y1="1015.2969" y2="1015.2969"/><text fill="#000000" font-family="sans-serif" font-size="14" lengthAdjust="spacing" textLength="109" x="834" y="1006.9951">Physical Netlist</text><text fill="#000000" font-family="sans-serif" font-size="12" lengthAdjust="spacing" textLength="177" x="792.5" y="1031.4355">Gate-Level Circuit Information</text><text fill="#000000" font-family="sans-serif" font-size="12" lengthAdjust="spacing" textLength="172" x="792.5" y="1045.4043">Physical Location Information</text><text fill="#000000" font-family="sans-serif" font-size="12" lengthAdjust="spacing" textLength="110" x="792.5" y="1059.373">Timing Information</text><text fill="#000000" font-family="sans-serif" font-size="12" lengthAdjust="spacing" textLength="182" x="792.5" y="1073.3418">Power and Ground Information</text><text fill="#000000" font-family="sans-serif" font-size="12" lengthAdjust="spacing" textLength="182" x="792.5" y="1087.3105">Physical Constraint Information</text></g><g id="floorplanning_constraints"><rect fill="#FFFFFF" height="120.1094" rx="12.5" ry="12.5" style="stroke:#181818;stroke-width:0.5;" width="276" x="108.5" y="1139"/><line style="stroke:#181818;stroke-width:0.5;" x1="108.5" x2="384.5" y1="1165.2969" y2="1165.2969"/><text fill="#000000" font-family="sans-serif" font-size="14" lengthAdjust="spacing" textLength="185" x="154" y="1156.9951">Floorplanning Constraints</text><text fill="#000000" font-family="sans-serif" font-size="12" lengthAdjust="spacing" textLength="143" x="113.5" y="1181.4355">Chip Size and Boundary</text><text fill="#000000" font-family="sans-serif" font-size="12" lengthAdjust="spacing" textLength="65" x="113.5" y="1195.4043">Partitioning</text><text fill="#000000" font-family="sans-serif" font-size="12" lengthAdjust="spacing" textLength="221" x="113.5" y="1209.373">Placement and Orientation of Macros</text><text fill="#000000" font-family="sans-serif" font-size="12" lengthAdjust="spacing" textLength="256" x="113.5" y="1223.3418">Routing of Communication and Signal Lines</text><text fill="#000000" font-family="sans-serif" font-size="12" lengthAdjust="spacing" textLength="192" x="113.5" y="1237.3105">Placement of Power and Ground</text><text fill="#000000" font-family="sans-serif" font-size="12" lengthAdjust="spacing" textLength="152" x="113.5" y="1251.2793">Pin Placement Constraints</text></g><g id="timing_constraints"><rect fill="#FFFFFF" height="148.0469" rx="12.5" ry="12.5" style="stroke:#181818;stroke-width:0.5;" width="156" x="419.5" y="1125"/><line style="stroke:#181818;stroke-width:0.5;" x1="419.5" x2="575.5" y1="1151.2969" y2="1151.2969"/><text fill="#000000" font-family="sans-serif" font-size="14" lengthAdjust="spacing" textLength="136" x="429.5" y="1142.9951">Timing Constraints</text><text fill="#000000" font-family="sans-serif" font-size="12" lengthAdjust="spacing" textLength="92" x="424.5" y="1167.4355">Clock definition</text><text fill="#000000" font-family="sans-serif" font-size="12" lengthAdjust="spacing" textLength="65" x="424.5" y="1181.4043">Setup time</text><text fill="#000000" font-family="sans-serif" font-size="12" lengthAdjust="spacing" textLength="58" x="424.5" y="1195.373">Hold time</text><text fill="#000000" font-family="sans-serif" font-size="12" lengthAdjust="spacing" textLength="64" x="424.5" y="1209.3418">Delay time</text><text fill="#000000" font-family="sans-serif" font-size="12" lengthAdjust="spacing" textLength="121" x="424.5" y="1223.3105">Maximum frequency</text><text fill="#000000" font-family="sans-serif" font-size="12" lengthAdjust="spacing" textLength="96" x="424.5" y="1237.2793">Minimum period</text><text fill="#000000" font-family="sans-serif" font-size="12" lengthAdjust="spacing" textLength="90" x="424.5" y="1251.248">Constraint path</text><text fill="#000000" font-family="sans-serif" font-size="12" lengthAdjust="spacing" textLength="91" x="424.5" y="1265.2168">Timing analysis</text></g><g id="rule_libraries"><rect fill="#FFFFFF" height="148.0469" rx="12.5" ry="12.5" style="stroke:#181818;stroke-width:0.5;" width="231" x="611" y="1125"/><line style="stroke:#181818;stroke-width:0.5;" x1="611" x2="842" y1="1151.2969" y2="1151.2969"/><text fill="#000000" font-family="sans-serif" font-size="14" lengthAdjust="spacing" textLength="211" x="621" y="1142.9951">Physical Design Rule Libraries</text><text fill="#000000" font-family="sans-serif" font-size="12" lengthAdjust="spacing" textLength="171" x="616" y="1167.4355">Line width and spacing rules</text><text fill="#000000" font-family="sans-serif" font-size="12" lengthAdjust="spacing" textLength="73" x="616" y="1181.4043">Layout rules</text><text fill="#000000" font-family="sans-serif" font-size="12" lengthAdjust="spacing" textLength="97" x="616" y="1195.373">Pin access rules</text><text fill="#000000" font-family="sans-serif" font-size="12" lengthAdjust="spacing" textLength="55" x="616" y="1209.3418">Pad rules</text><text fill="#000000" font-family="sans-serif" font-size="12" lengthAdjust="spacing" textLength="52" x="616" y="1223.3105">Via rules</text><text fill="#000000" font-family="sans-serif" font-size="12" lengthAdjust="spacing" textLength="144" x="616" y="1237.2793">Power and ground rules</text><text fill="#000000" font-family="sans-serif" font-size="12" lengthAdjust="spacing" textLength="97" x="616" y="1251.248">Guard ring rules</text><text fill="#000000" font-family="sans-serif" font-size="12" lengthAdjust="spacing" textLength="79" x="616" y="1265.2168">Contact rules</text></g><g id="elem_c_pd"><polygon fill="#F1F1F1" points="588.5,1334,600.5,1346,588.5,1358,576.5,1346,588.5,1334" style="stroke:#181818;stroke-width:0.5;"/></g><g id="pr"><rect fill="#FFFFFF" height="92.1719" rx="12.5" ry="12.5" style="stroke:#181818;stroke-width:0.5;" width="203" x="487" y="1435"/><line style="stroke:#181818;stroke-width:0.5;" x1="487" x2="690" y1="1461.2969" y2="1461.2969"/><text fill="#000000" font-family="sans-serif" font-size="14" lengthAdjust="spacing" textLength="183" x="497" y="1452.9951">Place &amp; Route Infomation</text><text fill="#000000" font-family="sans-serif" font-size="12" lengthAdjust="spacing" textLength="154" x="492" y="1477.4355">Physical Design Database</text><text fill="#000000" font-family="sans-serif" font-size="12" lengthAdjust="spacing" textLength="39" x="492" y="1491.4043">Layout</text><text fill="#000000" font-family="sans-serif" font-size="12" lengthAdjust="spacing" textLength="44" x="492" y="1505.373">Routing</text><text fill="#000000" font-family="sans-serif" font-size="12" lengthAdjust="spacing" textLength="110" x="492" y="1519.3418">Timing Information</text></g><g id="vr"><rect fill="#FFFFFF" height="92.1719" rx="12.5" ry="12.5" style="stroke:#181818;stroke-width:0.5;" width="166" x="505.5" y="1604"/><line style="stroke:#181818;stroke-width:0.5;" x1="505.5" x2="671.5" y1="1630.2969" y2="1630.2969"/><text fill="#000000" font-family="sans-serif" font-size="14" lengthAdjust="spacing" textLength="146" x="515.5" y="1621.9951">Verification Reports</text><text fill="#000000" font-family="sans-serif" font-size="12" lengthAdjust="spacing" textLength="24" x="510.5" y="1646.4355">DRC</text><text fill="#000000" font-family="sans-serif" font-size="12" lengthAdjust="spacing" textLength="22" x="510.5" y="1660.4043">LVS</text><text fill="#000000" font-family="sans-serif" font-size="12" lengthAdjust="spacing" textLength="22" x="510.5" y="1674.373">ERC</text><text fill="#000000" font-family="sans-serif" font-size="12" lengthAdjust="spacing" textLength="89" x="510.5" y="1688.3418">Antenna Check</text></g><g id="elem_c_so"><polygon fill="#F1F1F1" points="588.5,1773,600.5,1785,588.5,1797,576.5,1785,588.5,1773" style="stroke:#181818;stroke-width:0.5;"/></g><g id="fd"><rect fill="#FFFFFF" height="50.2656" rx="12.5" ry="12.5" style="stroke:#181818;stroke-width:0.5;" width="106" x="303.5" y="1935"/><line style="stroke:#181818;stroke-width:0.5;" x1="303.5" x2="409.5" y1="1961.2969" y2="1961.2969"/><text fill="#000000" font-family="sans-serif" font-size="14" lengthAdjust="spacing" textLength="86" x="313.5" y="1952.9951">Final Design</text><text fill="#000000" font-family="sans-serif" font-size="12" lengthAdjust="spacing" textLength="26" x="308.5" y="1977.4355">GDS</text></g><g id="complete_report"><rect fill="#FFFFFF" height="148.0469" rx="12.5" ry="12.5" style="stroke:#181818;stroke-width:0.5;" width="288" x="444.5" y="1886"/><line style="stroke:#181818;stroke-width:0.5;" x1="444.5" x2="732.5" y1="1912.2969" y2="1912.2969"/><text fill="#000000" font-family="sans-serif" font-size="14" lengthAdjust="spacing" textLength="268" x="454.5" y="1903.9951">Complete Design Verification Report</text><text fill="#000000" font-family="sans-serif" font-size="12" lengthAdjust="spacing" textLength="123" x="449.5" y="1928.4355">Design Specification</text><text fill="#000000" font-family="sans-serif" font-size="12" lengthAdjust="spacing" textLength="94" x="449.5" y="1942.4043">Verification Plan</text><text fill="#000000" font-family="sans-serif" font-size="12" lengthAdjust="spacing" textLength="143" x="449.5" y="1956.373">Test Environment Setup</text><text fill="#000000" font-family="sans-serif" font-size="12" lengthAdjust="spacing" textLength="67" x="449.5" y="1970.3418">Test Cases</text><text fill="#000000" font-family="sans-serif" font-size="12" lengthAdjust="spacing" textLength="114" x="449.5" y="1984.3105">Verification Results</text><text fill="#000000" font-family="sans-serif" font-size="12" lengthAdjust="spacing" textLength="87" x="449.5" y="1998.2793">Issue Tracking</text><text fill="#000000" font-family="sans-serif" font-size="12" lengthAdjust="spacing" textLength="112" x="449.5" y="2012.248">Coverage Analysis</text><text fill="#000000" font-family="sans-serif" font-size="12" lengthAdjust="spacing" textLength="127" x="449.5" y="2026.2168">Verification Summary</text></g><g id="production_document"><rect fill="#FFFFFF" height="203.9219" rx="12.5" ry="12.5" style="stroke:#181818;stroke-width:0.5;" width="309" x="768" y="1858"/><line style="stroke:#181818;stroke-width:0.5;" x1="768" x2="1077" y1="1884.2969" y2="1884.2969"/><text fill="#000000" font-family="sans-serif" font-size="14" lengthAdjust="spacing" textLength="256" x="794.5" y="1875.9951">Production Specification Document</text><text fill="#000000" font-family="sans-serif" font-size="12" lengthAdjust="spacing" textLength="104" x="773" y="1900.4355">Design Overview</text><text fill="#000000" font-family="sans-serif" font-size="12" lengthAdjust="spacing" textLength="163" x="773" y="1914.4043">Chip Functional Description</text><text fill="#000000" font-family="sans-serif" font-size="12" lengthAdjust="spacing" textLength="193" x="773" y="1928.373">Power and Timing Requirements</text><text fill="#000000" font-family="sans-serif" font-size="12" lengthAdjust="spacing" textLength="140" x="773" y="1942.3418">Physical Characteristics</text><text fill="#000000" font-family="sans-serif" font-size="12" lengthAdjust="spacing" textLength="193" x="773" y="1956.3105">Package and Test Requirements</text><text fill="#000000" font-family="sans-serif" font-size="12" lengthAdjust="spacing" textLength="187" x="773" y="1970.2793">Manufacturability Requirements</text><text fill="#000000" font-family="sans-serif" font-size="12" lengthAdjust="spacing" textLength="143" x="773" y="1984.248">Reliability Requirements</text><text fill="#000000" font-family="sans-serif" font-size="12" lengthAdjust="spacing" textLength="121" x="773" y="1998.2168">Integration Test Plan</text><text fill="#000000" font-family="sans-serif" font-size="12" lengthAdjust="spacing" textLength="115" x="773" y="2012.1855">Quality Control Plan</text><text fill="#000000" font-family="sans-serif" font-size="12" lengthAdjust="spacing" textLength="135" x="773" y="2026.1543">Manufacturing Process</text><text fill="#000000" font-family="sans-serif" font-size="12" lengthAdjust="spacing" textLength="289" x="773" y="2040.123">Environmental, Health, and Safety Requirements</text><text fill="#000000" font-family="sans-serif" font-size="12" lengthAdjust="spacing" textLength="101" x="773" y="2054.0918">Project Schedule</text></g><rect fill="#FFFFFF" height="40" rx="12.5" ry="12.5" style="stroke:#181818;stroke-width:0.5;" width="84" x="314.5" y="2139"/><text fill="#000000" font-family="sans-serif" font-size="14" lengthAdjust="spacing" textLength="74" x="319.5" y="2163.8467">Mask Data</text><rect fill="#FFFFFF" height="40" rx="12.5" ry="12.5" style="stroke:#181818;stroke-width:0.5;" width="71" x="505" y="2139"/><text fill="#000000" font-family="sans-serif" font-size="14" lengthAdjust="spacing" textLength="61" x="510" y="2163.8467">Bare Die</text><rect fill="#FFFFFF" height="40" rx="12.5" ry="12.5" style="stroke:#181818;stroke-width:0.5;" width="50" x="726.5" y="2139"/><text fill="#000000" font-family="sans-serif" font-size="14" lengthAdjust="spacing" textLength="33" x="735" y="2163.8467">Chip</text><ellipse cx="66.5" cy="74" fill="#181818" rx="10" ry="10" style="stroke:none;stroke-width:1.0;"/><ellipse cx="821.5" cy="2159" fill="none" rx="10" ry="10" style="stroke:#181818;stroke-width:1.0;"/><ellipse cx="822" cy="2159.5" fill="#181818" rx="6" ry="6" style="stroke:none;stroke-width:1.0;"/><!--link *start* to cp--><g id="link_*start*_cp"><path d="M76.918,74 C88.6065,74 94.2951,74 105.984,74 " fill="none" id="*start*-to-cp" style="stroke:#181818;stroke-width:1.0;"/><polygon fill="#181818" points="111.984,74,102.984,70,106.984,74,102.984,78,111.984,74" style="stroke:#181818;stroke-width:1.0;"/></g><!--link cp to ss--><g id="link_cp_ss"><path d="M275.02,74 C326.704,74 388.495,74 446.407,74 " fill="none" id="cp-to-ss" style="stroke:#181818;stroke-width:1.0;"/><polygon fill="#181818" points="452.407,74,443.407,70,447.407,74,443.407,78,452.407,74" style="stroke:#181818;stroke-width:1.0;"/><text fill="#000000" font-family="sans-serif" font-size="13" lengthAdjust="spacing" textLength="141" x="293.25" y="67.0669">System Specifications</text></g><!--link ss to arc--><g id="link_ss_arc"><path d="M694.599,74 C747.14,74 802.334,74 853.993,74 " fill="none" id="ss-to-arc" style="stroke:#181818;stroke-width:1.0;"/><polygon fill="#181818" points="859.993,74,850.993,70,854.993,74,850.993,78,859.993,74" style="stroke:#181818;stroke-width:1.0;"/><text fill="#000000" font-family="sans-serif" font-size="13" lengthAdjust="spacing" textLength="129" x="712.75" y="67.0669">Architectural Design</text></g><!--link ss to c_fd--><g id="link_ss_c_fd"><path d="M669.399,141.17 C709.901,169.12 746.3628,194.2721 762.0268,205.0821 " fill="none" id="ss-to-c_fd" style="stroke:#181818;stroke-width:1.0;"/><polygon fill="#181818" points="766.965,208.49,761.8296,200.0859,762.8498,205.65,757.2857,206.6702,766.965,208.49" style="stroke:#181818;stroke-width:1.0;"/></g><!--link arc to c_fd--><g id="link_arc_c_fd"><path d="M918.32,113.07 C869.064,147.06 806.4563,190.2622 785.1543,204.9622 " fill="none" id="arc-to-c_fd" style="stroke:#181818;stroke-width:1.0;"/><polygon fill="#181818" points="780.216,208.37,789.8953,206.5505,784.3313,205.5302,785.3516,199.9661,780.216,208.37" style="stroke:#181818;stroke-width:1.0;"/></g><!--link c_fd to rtl--><g id="link_c_fd_rtl"><path d="M773.5,226.46 C773.5,249.18 773.5,294.4 773.5,324.88 " fill="none" id="c_fd-to-rtl" style="stroke:#181818;stroke-width:1.0;"/><polygon fill="#181818" points="773.5,330.88,777.5,321.88,773.5,325.88,769.5,321.88,773.5,330.88" style="stroke:#181818;stroke-width:1.0;"/><text fill="#000000" font-family="sans-serif" font-size="13" lengthAdjust="spacing" textLength="113" x="774.5" y="269.0669">Functional Design</text></g><!--link cf to c_ls--><g id="link_cf_c_ls"><path d="M373.751,381.2 C400.707,410.52 440.3668,453.6634 455.8148,470.4634 " fill="none" id="cf-to-c_ls" style="stroke:#181818;stroke-width:1.0;"/><polygon fill="#181818" points="459.876,474.88,456.7286,465.5476,456.4917,471.1995,450.8398,470.9625,459.876,474.88" style="stroke:#181818;stroke-width:1.0;"/></g><!--link scl to c_ls--><g id="link_scl_c_ls"><path d="M254.29,402.82 C334.435,432.49 423.3089,465.3878 451.5229,475.8278 " fill="none" id="scl-to-c_ls" style="stroke:#181818;stroke-width:1.0;"/><polygon fill="#181818" points="457.15,477.91,450.0975,471.0353,452.4607,476.1748,447.3212,478.5381,457.15,477.91" style="stroke:#181818;stroke-width:1.0;"/></g><!--link tlc to c_ls--><g id="link_tlc_c_ls"><path d="M563.629,376.1 C536.81,404.77 491.6371,453.0585 475.1431,470.6885 " fill="none" id="tlc-to-c_ls" style="stroke:#181818;stroke-width:1.0;"/><polygon fill="#181818" points="471.044,475.07,480.1137,471.2306,474.4599,471.4188,474.2717,465.7651,471.044,475.07" style="stroke:#181818;stroke-width:1.0;"/></g><!--link rtl to c_ls--><g id="link_rtl_c_ls"><path d="M758.917,381.11 C751.787,391.06 742.387,401.9 731.5,409 C644.539,465.71 519.8646,477.625 482.0726,480.055 " fill="none" id="rtl-to-c_ls" style="stroke:#181818;stroke-width:1.0;"/><polygon fill="#181818" points="476.085,480.44,485.3231,483.8543,481.0747,480.1192,484.8098,475.8707,476.085,480.44" style="stroke:#181818;stroke-width:1.0;"/></g><!--link c_ls to gn--><g id="link_c_ls_gn"><path d="M465.5,494.46 C465.5,513.98 465.5,548.54 465.5,578.91 " fill="none" id="c_ls-to-gn" style="stroke:#181818;stroke-width:1.0;"/><polygon fill="#181818" points="465.5,584.91,469.5,575.91,465.5,579.91,461.5,575.91,465.5,584.91" style="stroke:#181818;stroke-width:1.0;"/><text fill="#000000" font-family="sans-serif" font-size="13" lengthAdjust="spacing" textLength="99" x="466.5" y="537.0669">Logic Synthesis</text></g><!--link ttl to c_tm--><g id="link_ttl_c_tm"><path d="M649.104,677.13 C630.166,707.61 611.3859,737.8239 602.1389,752.7039 " fill="none" id="ttl-to-c_tm" style="stroke:#181818;stroke-width:1.0;"/><polygon fill="#181818" points="598.972,757.8,607.1198,752.2671,601.6111,753.5532,600.325,748.0445,598.972,757.8" style="stroke:#181818;stroke-width:1.0;"/><text fill="#000000" font-family="sans-serif" font-size="13" lengthAdjust="spacing" textLength="88" x="630.5" y="720.0669">Tech Mapping</text></g><!--link gn to c_tm--><g id="link_gn_c_tm"><path d="M480.981,663.03 C490.479,682.94 504.16,706.71 521.5,724 C541.058,743.5 566.181,754.5252 580.731,760.0052 " fill="none" id="gn-to-c_tm" style="stroke:#181818;stroke-width:1.0;"/><polygon fill="#181818" points="586.346,762.12,579.3334,755.2045,581.6669,760.3577,576.5137,762.6911,586.346,762.12" style="stroke:#181818;stroke-width:1.0;"/><text fill="#000000" font-family="sans-serif" font-size="13" lengthAdjust="spacing" textLength="88" x="522.5" y="720.0669">Tech Mapping</text></g><!--link c_tm to pn--><g id="link_c_tm_pn"><path d="M605.562,767.24 C641.461,768.64 755.994,777.89 818.5,839 C859.238,878.83 875.3593,937.5925 882.4833,983.0125 " fill="none" id="c_tm-to-pn" style="stroke:#181818;stroke-width:1.0;"/><polygon fill="#181818" points="883.413,988.94,885.9701,979.4289,882.6382,984.0004,878.0667,980.6685,883.413,988.94" style="stroke:#181818;stroke-width:1.0;"/></g><!--link c_tm to pc--><g id="link_c_tm_pc"><path d="M586.292,770.03 C560.173,779.72 476.697,810.91 408.5,839 C398.685,843.04 394.0224,844.9648 383.8534,849.3048 " fill="none" id="c_tm-to-pc" style="stroke:#181818;stroke-width:1.0;"/><polygon fill="#181818" points="378.335,851.66,388.1828,851.8062,382.9337,849.6973,385.0425,844.4483,378.335,851.66" style="stroke:#181818;stroke-width:1.0;"/></g><!--link c_tm to ti--><g id="link_c_tm_ti"><path d="M590.066,773.68 C581.929,785.93 567.1864,808.1318 550.0254,833.9718 " fill="none" id="c_tm-to-ti" style="stroke:#181818;stroke-width:1.0;"/><polygon fill="#181818" points="546.706,838.97,555.0172,833.6857,549.4722,834.8049,548.353,829.2598,546.706,838.97" style="stroke:#181818;stroke-width:1.0;"/></g><!--link c_tm to drcrule--><g id="link_c_tm_drcrule"><path d="M599.914,772.63 C611.125,784.28 633.8102,807.8651 659.3312,834.4051 " fill="none" id="c_tm-to-drcrule" style="stroke:#181818;stroke-width:1.0;"/><polygon fill="#181818" points="663.49,838.73,660.135,829.4702,660.0243,835.126,654.3686,835.0153,663.49,838.73" style="stroke:#181818;stroke-width:1.0;"/></g><!--link pn to c_pd--><g id="link_pn_c_pd"><path d="M897.202,1095.32 C902.611,1146.79 901.877,1224.514 859.5,1273 C823.62,1314.053 649.0018,1337.6609 604.4188,1343.1039 " fill="none" id="pn-to-c_pd" style="stroke:#181818;stroke-width:1.0;"/><polygon fill="#181818" points="598.463,1343.831,607.8814,1346.7108,603.4261,1343.2251,606.9119,1338.7698,598.463,1343.831" style="stroke:#181818;stroke-width:1.0;"/></g><!--link floorplanning_constraints to c_pd--><g id="link_floorplanning_constraints_c_pd"><path d="M370.08,1259.18 C380.665,1263.951 391.243,1268.617 401.5,1273 C469.639,1302.118 548.1963,1330.606 574.5623,1340.033 " fill="none" id="floorplanning_constraints-to-c_pd" style="stroke:#181818;stroke-width:1.0;"/><polygon fill="#181818" points="580.212,1342.053,573.0841,1335.2565,575.5039,1340.3696,570.3907,1342.7894,580.212,1342.053" style="stroke:#181818;stroke-width:1.0;"/></g><!--link timing_constraints to c_pd--><g id="link_timing_constraints_c_pd"><path d="M543.533,1273.35 C560.109,1299.761 573.4006,1320.9399 580.9866,1333.0279 " fill="none" id="timing_constraints-to-c_pd" style="stroke:#181818;stroke-width:1.0;"/><polygon fill="#181818" points="584.176,1338.11,582.78,1328.3606,581.5182,1333.8749,576.0039,1332.6131,584.176,1338.11" style="stroke:#181818;stroke-width:1.0;"/></g><!--link rule_libraries to c_pd--><g id="link_rule_libraries_c_pd"><path d="M656.691,1273.35 C630.753,1300.604 609.1021,1323.3515 598.1341,1334.8775 " fill="none" id="rule_libraries-to-c_pd" style="stroke:#181818;stroke-width:1.0;"/><polygon fill="#181818" points="593.998,1339.224,603.0999,1335.4616,597.4448,1335.6019,597.3045,1329.9468,593.998,1339.224" style="stroke:#181818;stroke-width:1.0;"/></g><!--link c_pd to pr--><g id="link_c_pd_pr"><path d="M588.5,1358.34 C588.5,1375.175 588.5,1401.719 588.5,1428.914 " fill="none" id="c_pd-to-pr" style="stroke:#181818;stroke-width:1.0;"/><polygon fill="#181818" points="588.5,1434.914,592.5,1425.914,588.5,1429.914,584.5,1425.914,588.5,1434.914" style="stroke:#181818;stroke-width:1.0;"/><text fill="#000000" font-family="sans-serif" font-size="13" lengthAdjust="spacing" textLength="100" x="589.5" y="1401.0669">Physical Design</text></g><!--link pr to vr--><g id="link_pr_vr"><path d="M588.5,1527.193 C588.5,1550.956 588.5,1574.003 588.5,1597.771 " fill="none" id="pr-to-vr" style="stroke:#181818;stroke-width:1.0;"/><polygon fill="#181818" points="588.5,1603.771,592.5,1594.771,588.5,1598.771,584.5,1594.771,588.5,1603.771" style="stroke:#181818;stroke-width:1.0;"/><text fill="#000000" font-family="sans-serif" font-size="13" lengthAdjust="spacing" textLength="128" x="589.5" y="1570.0669">Physical Verification</text></g><!--link vr to c_so--><g id="link_vr_c_so"><path d="M588.5,1696.028 C588.5,1723.308 588.5,1749.989 588.5,1766.797 " fill="none" id="vr-to-c_so" style="stroke:#181818;stroke-width:1.0;"/><polygon fill="#181818" points="588.5,1772.797,592.5,1763.797,588.5,1767.797,584.5,1763.797,588.5,1772.797" style="stroke:#181818;stroke-width:1.0;"/><text fill="#000000" font-family="sans-serif" font-size="13" lengthAdjust="spacing" textLength="51" x="589.5" y="1739.0669">Sign Off</text></g><!--link c_so to fd--><g id="link_c_so_fd"><path d="M579.58,1788.177 C553.671,1794.854 477.12,1817.105 427.5,1858 C401.532,1879.402 383.5815,1907.2722 371.3615,1929.7022 " fill="none" id="c_so-to-fd" style="stroke:#181818;stroke-width:1.0;"/><polygon fill="#181818" points="368.491,1934.971,376.3093,1928.9814,370.8831,1930.5803,369.2842,1925.1541,368.491,1934.971" style="stroke:#181818;stroke-width:1.0;"/></g><!--link c_so to complete_report--><g id="link_c_so_complete_report"><path d="M588.5,1797.085 C588.5,1814.983 588.5,1845.679 588.5,1879.617 " fill="none" id="c_so-to-complete_report" style="stroke:#181818;stroke-width:1.0;"/><polygon fill="#181818" points="588.5,1885.617,592.5,1876.617,588.5,1880.617,584.5,1876.617,588.5,1885.617" style="stroke:#181818;stroke-width:1.0;"/></g><!--link c_so to production_document--><g id="link_c_so_production_document"><path d="M596.403,1789.141 C620.14,1798.655 692.736,1828.324 750.5,1858 C756.198,1860.928 756.6803,1861.1291 762.4873,1864.2351 " fill="none" id="c_so-to-production_document" style="stroke:#181818;stroke-width:1.0;"/><polygon fill="#181818" points="767.778,1867.065,761.7285,1859.293,763.3691,1864.7068,757.9553,1866.3474,767.778,1867.065" style="stroke:#181818;stroke-width:1.0;"/></g><!--link fd to md--><g id="link_fd_md"><path d="M356.5,1985.156 C356.5,2024.815 356.5,2096.9158 356.5,2132.9542 " fill="none" id="fd-to-md" style="stroke:#181818;stroke-width:1.0;"/><polygon fill="#181818" points="356.5,2138.9542,360.5,2129.9542,356.5,2133.9542,352.5,2129.9542,356.5,2138.9542" style="stroke:#181818;stroke-width:1.0;"/><text fill="#000000" font-family="sans-serif" font-size="13" lengthAdjust="spacing" textLength="117" x="357.5" y="2105.0669">Layout Processing</text></g><!--link md to bd--><g id="link_md_bd"><path d="M398.713,2159 C430.862,2159 468.616,2159 498.981,2159 " fill="none" id="md-to-bd" style="stroke:#181818;stroke-width:1.0;"/><polygon fill="#181818" points="504.981,2159,495.981,2155,499.981,2159,495.981,2163,504.981,2159" style="stroke:#181818;stroke-width:1.0;"/><text fill="#000000" font-family="sans-serif" font-size="13" lengthAdjust="spacing" textLength="70" x="416.75" y="2152.0669">Fabrication</text></g><!--link bd to chip--><g id="link_bd_chip"><path d="M576.293,2159 C618.974,2159 683.204,2159 720.465,2159 " fill="none" id="bd-to-chip" style="stroke:#181818;stroke-width:1.0;"/><polygon fill="#181818" points="726.465,2159,717.465,2155,721.465,2159,717.465,2163,726.465,2159" style="stroke:#181818;stroke-width:1.0;"/><text fill="#000000" font-family="sans-serif" font-size="13" lengthAdjust="spacing" textLength="114" x="594.25" y="2152.0669">Package and Test</text></g><!--link chip to *end*--><g id="link_chip_*end*"><path d="M776.656,2159 C788.218,2159 793.779,2159 805.34,2159 " fill="none" id="chip-to-*end*" style="stroke:#181818;stroke-width:1.0;"/><polygon fill="#181818" points="811.34,2159,802.34,2155,806.34,2159,802.34,2163,811.34,2159" style="stroke:#181818;stroke-width:1.0;"/></g><!--link tlc to rtl--><!--link cf to tlc--><!--link scl to cf--><!--link pc to floorplanning_constraints--><!--link ti to timing_constraints--><!--link drcrule to rule_libraries--><!--SRC=[ZLXVRzis47_Nfo3si8UX-G91KI2ncoQ0isIsrpqKHK1JjCM58ZMISkOD- -wxErAKR4jk2ZYbxexKyUvt_-HVbMcuupLR1Hua-xTWyE-MYzUTiwqfPrPRn_weL935VqLHgL8oMJVXm4hfXLDDKDOKXQVDFyqgrR1dF4u6wVnFZ7icca8qx9gjkTl9m6hkNcM8fBdqoicIDT9jhQkv4J8odksRT2pG3Xz93mPEt78XsSCpS_AlLhbQcexxkvTCS2zzLcLry472hHefr5O9Zdf6XRmll8SzTwqHIEMQBUay6GyavdEl4dkKmIcH6BqUSxbLHj6vaNNFNVd6dOJZl6qTYDneRUEheyHIQiKtIYkm7pSbMqdHEdmuLs06nmR7LIPybIvV15MgRDdVziO9T948hPDqIUv40J_OzsZBLajshwG3GdL8vB5x91Qet-hWcTsoQCKhBVTIivMgMys73XSlsv9z_2WgguJyz2chirmlI0iNT04_jCryqQCaNutTAHtr5Tj2RACS0y2jPxqu0DEKO5esargpXTh0FGxHaq8Ny8DjjzmhmRJTmTyTx4ha5PWLJAh0nLAJTJj6i8xl96lXueaqLpiLGB0cUoNYKwW0YCBMjJNwm5eFQDtskC7jlHFMKbG6ucLtwBGa9myyILe7BNhxQJzclnGhvmV60y2gWQpwN1tWtg08HjBEi2LexXDlQAr4MgjQcLqYgYmPe-sK2hYHUa3jTFi2VnCWVfL1Anz8gPqfG85hjiW-y97mO9esa25i6t3PM1So3q0eh35In3ZATWdrc5toVKzjseYYGUW-Qq0q-laeVeWrWr1yFISlGIiqoXaZMkMStAbm58z3iUp4QEq7Gua4nQBtL15KrkVE4KJ58H8V-TyGP3NuK_D46XvzGe1K6wfpwYqcxkHArRlz1X0Bkdk8x-Y2Jj7vSaR88VLA9npYF_sFiT9mWVkNn-IrrP1HC3y-RRSUKdhFkjaOlB9cDqvoFs10sWBgWX_0iYV7pUKUV3rmu0a_kWDXz8KAK-IV0MC8oSOK3QAC4BiWnCwK4wqAGwT4cNp08YNiSv5pVwQjfvfD7pvmqb2ekyMTjjOrcXjpWaYwpdR8VH43M4no41TOabVg7qaQ9cWSBcw10Xwe7W3hic1s5fxz18Wp8HeFIiSZ5yvUrgsBFP2UGOg5R9fiJxKH4XhwGndftwa5d7FgZCixbPd862SnV9R2YNpaWtDIZl6oBx2ZKYiPsWRFbEFyUwlB2spA5HVuNKxP3bBDc1ZeY6BGZ2bRJjodnsy3gMTSADcCftHp7gE3OjNNbzWl0Eb5vv9p_8Z51S30tbGPAdAnJvd9KTaxb-O70DWK5vtFXP3UJqhmSehrLV79NHc1iOEUallIOa_ZBkWFrWvST1V8fR4PRRa8n-ndYYb9sMLGSnfND6waNvZpm3VGDaTkj5TSfz2C3oEPhtljKHLCXOLUkNV57lT2SOcBnTTLN7pkA3TG_OtXaAAaUEtlv-tO_UwKoNh7T0YnNQ8Tvwj1Prat6aQFxduZsiLkCyczEA8L9yzfD843ZiQ74R6Z5u0BncJMqWVssUoLiuOI3SNxbE2CffWVl2brw2DY3zwtagqT373eldE1cTrBQdsxTk17xrgrTOqL8mFDGOCi8cje7JQteiNx9SHrKYzbeXSZjDxIJw3MNict2IagOuE9RJwOFiTtz76Ou7iqOqtioOMwWY5MG7CAlGIEVXFYO6Kq9Rq4dVUELpnoqyBO1ODQDmY-OzDmRdo7EBRLEnUzGdeHCiTbVsiv7Ol9nbbzIRHN7Sq9EC3aEI4xm3lN7zYzv3fK7s9Xvrlvldl0A_w4oO2jH2NBORltoFqh9I_2MbrcnYsEttCLMzbDUVHX8aO-B8hYso_VsTKd_3I1dmzWHHFsw2U30gTla8YZyM3Epjceay1Xc2Reg-w1ncDyYZFmCNnf9yoyKLfxcZZp0mo9_GDkpmyqC-BJODnQ7GmCgbHiGvQ54UgQHaXmNDDWDe0TKooY8HEQvduj-ZMCBNdTpGZOtSO3cqkDLXOPQHSoxwJwPNf11O-q6QbW1HOePExTr6nMOB69nq5bkQQ-4aSMF1a8o25NfVLPQUWOOncjIFwjoxxTI761HYs03jmDSk_uncMDDaH7B8va4L0C6I00C2qY4fpQLU5RfSfIckyHK8ITKpf-Mo0SdJ84t1Vcrwi1QNgUWAbnA3ZIxNPpsL3is8F_0m00]--></g></svg>