<?xml version="1.0" encoding="us-ascii" standalone="no"?><svg xmlns="http://www.w3.org/2000/svg" xmlns:xlink="http://www.w3.org/1999/xlink" contentStyleType="text/css" height="2282px" preserveAspectRatio="none" style="width:950px;height:2282px;background:#FFFFFF;" version="1.1" viewBox="0 0 950 2282" width="950px" zoomAndPan="magnify"><defs/><g><!--cluster iEDA--><g id="cluster_iEDA"><path d="M8.5,6 L45.5,6 A3.75,3.75 0 0 1 48,8.5 L55,28.2969 L941,28.2969 A2.5,2.5 0 0 1 943.5,30.7969 L943.5,2272.5 A2.5,2.5 0 0 1 941,2275 L8.5,2275 A2.5,2.5 0 0 1 6,2272.5 L6,8.5 A2.5,2.5 0 0 1 8.5,6 " fill="none" style="stroke:#000000;stroke-width:1.5;"/><line style="stroke:#000000;stroke-width:1.5;" x1="6" x2="55" y1="28.2969" y2="28.2969"/><text fill="#000000" font-family="sans-serif" font-size="14" font-weight="bold" lengthAdjust="spacing" textLength="36" x="10" y="20.9951">iEDA</text></g><!--cluster ????--><g id="cluster_&#29992;&#25143;&#20132;&#20114;"><path d="M129,57 L190,57 A3.75,3.75 0 0 1 192.5,59.5 L199.5,79.2969 L716,79.2969 A2.5,2.5 0 0 1 718.5,81.7969 L718.5,455.5 A2.5,2.5 0 0 1 716,458 L129,458 A2.5,2.5 0 0 1 126.5,455.5 L126.5,59.5 A2.5,2.5 0 0 1 129,57 " fill="none" style="stroke:#000000;stroke-width:1.5;"/><line style="stroke:#000000;stroke-width:1.5;" x1="126.5" x2="199.5" y1="79.2969" y2="79.2969"/><text fill="#000000" font-family="sans-serif" font-size="14" font-weight="bold" lengthAdjust="spacing" textLength="60" x="130.5" y="71.9951">&#29992;&#25143;&#20132;&#20114;</text></g><!--cluster interface--><g id="cluster_interface"><path d="M360.5,116 L435.5,116 A3.75,3.75 0 0 1 438,118.5 L445,138.2969 L676,138.2969 A2.5,2.5 0 0 1 678.5,140.7969 L678.5,407.5 A2.5,2.5 0 0 1 676,410 L360.5,410 A2.5,2.5 0 0 1 358,407.5 L358,118.5 A2.5,2.5 0 0 1 360.5,116 " fill="none" style="stroke:#000000;stroke-width:1.5;"/><line style="stroke:#000000;stroke-width:1.5;" x1="358" x2="445" y1="138.2969" y2="138.2969"/><text fill="#000000" font-family="sans-serif" font-size="14" font-weight="bold" lengthAdjust="spacing" textLength="74" x="362" y="130.9951">interface</text></g><!--cluster ????--><g id="cluster_&#19994;&#21153;&#27169;&#22359;"><path d="M40.5,498 L101.5,498 A3.75,3.75 0 0 1 104,500.5 L111,520.2969 L909,520.2969 A2.5,2.5 0 0 1 911.5,522.7969 L911.5,1678.5 A2.5,2.5 0 0 1 909,1681 L40.5,1681 A2.5,2.5 0 0 1 38,1678.5 L38,500.5 A2.5,2.5 0 0 1 40.5,498 " fill="none" style="stroke:#000000;stroke-width:1.5;"/><line style="stroke:#000000;stroke-width:1.5;" x1="38" x2="111" y1="520.2969" y2="520.2969"/><text fill="#000000" font-family="sans-serif" font-size="14" font-weight="bold" lengthAdjust="spacing" textLength="60" x="42" y="512.9951">&#19994;&#21153;&#27169;&#22359;</text></g><!--cluster ????--><g id="cluster_&#36741;&#21161;&#27169;&#22359;"><path d="M114,549 L175,549 A3.75,3.75 0 0 1 177.5,551.5 L184.5,571.2969 L877,571.2969 A2.5,2.5 0 0 1 879.5,573.7969 L879.5,923.5 A2.5,2.5 0 0 1 877,926 L114,926 A2.5,2.5 0 0 1 111.5,923.5 L111.5,551.5 A2.5,2.5 0 0 1 114,549 " fill="none" style="stroke:#000000;stroke-width:1.5;"/><line style="stroke:#000000;stroke-width:1.5;" x1="111.5" x2="184.5" y1="571.2969" y2="571.2969"/><text fill="#000000" font-family="sans-serif" font-size="14" font-weight="bold" lengthAdjust="spacing" textLength="60" x="115.5" y="563.9951">&#36741;&#21161;&#27169;&#22359;</text></g><!--cluster utility--><g id="cluster_utility"><path d="M363,600 L414,600 A3.75,3.75 0 0 1 416.5,602.5 L423.5,622.2969 L845,622.2969 A2.5,2.5 0 0 1 847.5,624.7969 L847.5,891.5 A2.5,2.5 0 0 1 845,894 L363,894 A2.5,2.5 0 0 1 360.5,891.5 L360.5,602.5 A2.5,2.5 0 0 1 363,600 " fill="none" style="stroke:#000000;stroke-width:1.5;"/><line style="stroke:#000000;stroke-width:1.5;" x1="360.5" x2="423.5" y1="622.2969" y2="622.2969"/><text fill="#000000" font-family="sans-serif" font-size="14" font-weight="bold" lengthAdjust="spacing" textLength="50" x="364.5" y="614.9951">utility</text></g><!--cluster operation--><g id="cluster_operation"><path d="M137,950 L217,950 A3.75,3.75 0 0 1 219.5,952.5 L226.5,972.2969 L829,972.2969 A2.5,2.5 0 0 1 831.5,974.7969 L831.5,1287.5 A2.5,2.5 0 0 1 829,1290 L137,1290 A2.5,2.5 0 0 1 134.5,1287.5 L134.5,952.5 A2.5,2.5 0 0 1 137,950 " fill="none" style="stroke:#000000;stroke-width:1.5;"/><line style="stroke:#000000;stroke-width:1.5;" x1="134.5" x2="226.5" y1="972.2969" y2="972.2969"/><text fill="#000000" font-family="sans-serif" font-size="14" font-weight="bold" lengthAdjust="spacing" textLength="79" x="138.5" y="964.9951">operation</text></g><!--cluster solver--><g id="cluster_solver"><path d="M72.5,1314 L122.5,1314 A3.75,3.75 0 0 1 125,1316.5 L132,1336.2969 L519.5,1336.2969 A2.5,2.5 0 0 1 522,1338.7969 L522,1570.5 A2.5,2.5 0 0 1 519.5,1573 L72.5,1573 A2.5,2.5 0 0 1 70,1570.5 L70,1316.5 A2.5,2.5 0 0 1 72.5,1314 " fill="none" style="stroke:#000000;stroke-width:1.5;"/><line style="stroke:#000000;stroke-width:1.5;" x1="70" x2="132" y1="1336.2969" y2="1336.2969"/><text fill="#000000" font-family="sans-serif" font-size="14" font-weight="bold" lengthAdjust="spacing" textLength="49" x="74" y="1328.9951">solver</text></g><!--cluster ????--><g id="cluster_&#25968;&#25454;&#35775;&#23384;"><path d="M71.5,1721 L132.5,1721 A3.75,3.75 0 0 1 135,1723.5 L142,1743.2969 L543,1743.2969 A2.5,2.5 0 0 1 545.5,1745.7969 L545.5,2068.5 A2.5,2.5 0 0 1 543,2071 L71.5,2071 A2.5,2.5 0 0 1 69,2068.5 L69,1723.5 A2.5,2.5 0 0 1 71.5,1721 " fill="none" style="stroke:#000000;stroke-width:1.5;"/><line style="stroke:#000000;stroke-width:1.5;" x1="69" x2="142" y1="1743.2969" y2="1743.2969"/><text fill="#000000" font-family="sans-serif" font-size="14" font-weight="bold" lengthAdjust="spacing" textLength="60" x="73" y="1735.9951">&#25968;&#25454;&#35775;&#23384;</text></g><!--cluster platform--><g id="cluster_platform"><path d="M103.5,1772 L176.5,1772 A3.75,3.75 0 0 1 179,1774.5 L186,1794.2969 L511,1794.2969 A2.5,2.5 0 0 1 513.5,1796.7969 L513.5,2028.5 A2.5,2.5 0 0 1 511,2031 L103.5,2031 A2.5,2.5 0 0 1 101,2028.5 L101,1774.5 A2.5,2.5 0 0 1 103.5,1772 " fill="none" style="stroke:#000000;stroke-width:1.5;"/><line style="stroke:#000000;stroke-width:1.5;" x1="101" x2="186" y1="1794.2969" y2="1794.2969"/><text fill="#000000" font-family="sans-serif" font-size="14" font-weight="bold" lengthAdjust="spacing" textLength="72" x="105" y="1786.9951">platform</text></g><!--cluster ???--><g id="cluster_&#25968;&#25454;&#28304;"><path d="M113.5,2111 L159.5,2111 A3.75,3.75 0 0 1 162,2113.5 L169,2133.2969 L494,2133.2969 A2.5,2.5 0 0 1 496.5,2135.7969 L496.5,2240.5 A2.5,2.5 0 0 1 494,2243 L113.5,2243 A2.5,2.5 0 0 1 111,2240.5 L111,2113.5 A2.5,2.5 0 0 1 113.5,2111 " fill="none" style="stroke:#000000;stroke-width:1.5;"/><line style="stroke:#000000;stroke-width:1.5;" x1="111" x2="169" y1="2133.2969" y2="2133.2969"/><text fill="#000000" font-family="sans-serif" font-size="14" font-weight="bold" lengthAdjust="spacing" textLength="45" x="115" y="2125.9951">&#25968;&#25454;&#28304;</text></g><!--entity apps--><g id="elem_apps"><rect fill="#F1F1F1" height="46.2969" rx="2.5" ry="2.5" style="stroke:#181818;stroke-width:0.5;" width="75" x="150.5" y="369"/><rect fill="#F1F1F1" height="10" style="stroke:#181818;stroke-width:0.5;" width="15" x="205.5" y="374"/><rect fill="#F1F1F1" height="2" style="stroke:#181818;stroke-width:0.5;" width="4" x="203.5" y="376"/><rect fill="#F1F1F1" height="2" style="stroke:#181818;stroke-width:0.5;" width="4" x="203.5" y="380"/><text fill="#000000" font-family="sans-serif" font-size="14" lengthAdjust="spacing" textLength="35" x="165.5" y="401.9951">apps</text></g><!--entity config--><g id="elem_config"><rect fill="#F1F1F1" height="46.2969" rx="2.5" ry="2.5" style="stroke:#181818;stroke-width:0.5;" width="85" x="385.5" y="321"/><rect fill="#F1F1F1" height="10" style="stroke:#181818;stroke-width:0.5;" width="15" x="450.5" y="326"/><rect fill="#F1F1F1" height="2" style="stroke:#181818;stroke-width:0.5;" width="4" x="448.5" y="328"/><rect fill="#F1F1F1" height="2" style="stroke:#181818;stroke-width:0.5;" width="4" x="448.5" y="332"/><text fill="#000000" font-family="sans-serif" font-size="14" lengthAdjust="spacing" textLength="45" x="400.5" y="353.9951">config</text></g><!--entity gui--><g id="elem_gui"><rect fill="#F1F1F1" height="46.2969" rx="2.5" ry="2.5" style="stroke:#181818;stroke-width:0.5;" width="61" x="397.5" y="240"/><rect fill="#F1F1F1" height="10" style="stroke:#181818;stroke-width:0.5;" width="15" x="438.5" y="245"/><rect fill="#F1F1F1" height="2" style="stroke:#181818;stroke-width:0.5;" width="4" x="436.5" y="247"/><rect fill="#F1F1F1" height="2" style="stroke:#181818;stroke-width:0.5;" width="4" x="436.5" y="251"/><text fill="#000000" font-family="sans-serif" font-size="14" lengthAdjust="spacing" textLength="21" x="412.5" y="272.9951">gui</text></g><!--entity python--><g id="elem_python"><rect fill="#F1F1F1" height="46.2969" rx="2.5" ry="2.5" style="stroke:#181818;stroke-width:0.5;" width="92" x="382" y="159"/><rect fill="#F1F1F1" height="10" style="stroke:#181818;stroke-width:0.5;" width="15" x="454" y="164"/><rect fill="#F1F1F1" height="2" style="stroke:#181818;stroke-width:0.5;" width="4" x="452" y="166"/><rect fill="#F1F1F1" height="2" style="stroke:#181818;stroke-width:0.5;" width="4" x="452" y="170"/><text fill="#000000" font-family="sans-serif" font-size="14" lengthAdjust="spacing" textLength="52" x="397" y="191.9951">python</text></g><!--entity shell--><g id="elem_shell"><rect fill="#F1F1F1" height="46.2969" rx="2.5" ry="2.5" style="stroke:#181818;stroke-width:0.5;" width="73" x="581.5" y="321"/><rect fill="#F1F1F1" height="10" style="stroke:#181818;stroke-width:0.5;" width="15" x="634.5" y="326"/><rect fill="#F1F1F1" height="2" style="stroke:#181818;stroke-width:0.5;" width="4" x="632.5" y="328"/><rect fill="#F1F1F1" height="2" style="stroke:#181818;stroke-width:0.5;" width="4" x="632.5" y="332"/><text fill="#000000" font-family="sans-serif" font-size="14" lengthAdjust="spacing" textLength="33" x="596.5" y="353.9951">shell</text></g><!--entity tcl--><g id="elem_tcl"><rect fill="#F1F1F1" height="46.2969" rx="2.5" ry="2.5" style="stroke:#181818;stroke-width:0.5;" width="59" x="588.5" y="240"/><rect fill="#F1F1F1" height="10" style="stroke:#181818;stroke-width:0.5;" width="15" x="627.5" y="245"/><rect fill="#F1F1F1" height="2" style="stroke:#181818;stroke-width:0.5;" width="4" x="625.5" y="247"/><rect fill="#F1F1F1" height="2" style="stroke:#181818;stroke-width:0.5;" width="4" x="625.5" y="251"/><text fill="#000000" font-family="sans-serif" font-size="14" lengthAdjust="spacing" textLength="19" x="603.5" y="272.9951">tcl</text></g><!--entity analysis--><g id="elem_analysis"><rect fill="#F1F1F1" height="46.2969" rx="2.5" ry="2.5" style="stroke:#181818;stroke-width:0.5;" width="95" x="140.5" y="1592"/><rect fill="#F1F1F1" height="10" style="stroke:#181818;stroke-width:0.5;" width="15" x="215.5" y="1597"/><rect fill="#F1F1F1" height="2" style="stroke:#181818;stroke-width:0.5;" width="4" x="213.5" y="1599"/><rect fill="#F1F1F1" height="2" style="stroke:#181818;stroke-width:0.5;" width="4" x="213.5" y="1603"/><text fill="#000000" font-family="sans-serif" font-size="14" lengthAdjust="spacing" textLength="55" x="155.5" y="1624.9951">analysis</text></g><!--entity evaluation--><g id="elem_evaluation"><rect fill="#F1F1F1" height="46.2969" rx="2.5" ry="2.5" style="stroke:#181818;stroke-width:0.5;" width="114" x="371" y="1592"/><rect fill="#F1F1F1" height="10" style="stroke:#181818;stroke-width:0.5;" width="15" x="465" y="1597"/><rect fill="#F1F1F1" height="2" style="stroke:#181818;stroke-width:0.5;" width="4" x="463" y="1599"/><rect fill="#F1F1F1" height="2" style="stroke:#181818;stroke-width:0.5;" width="4" x="463" y="1603"/><text fill="#000000" font-family="sans-serif" font-size="14" lengthAdjust="spacing" textLength="74" x="386" y="1624.9951">evaluation</text></g><!--entity third_party--><g id="elem_third_party"><rect fill="#F1F1F1" height="46.2969" rx="2.5" ry="2.5" style="stroke:#181818;stroke-width:0.5;" width="121" x="127.5" y="863"/><rect fill="#F1F1F1" height="10" style="stroke:#181818;stroke-width:0.5;" width="15" x="228.5" y="868"/><rect fill="#F1F1F1" height="2" style="stroke:#181818;stroke-width:0.5;" width="4" x="226.5" y="870"/><rect fill="#F1F1F1" height="2" style="stroke:#181818;stroke-width:0.5;" width="4" x="226.5" y="874"/><text fill="#000000" font-family="sans-serif" font-size="14" lengthAdjust="spacing" textLength="81" x="142.5" y="895.9951">third_party</text></g><!--entity json--><g id="elem_json"><rect fill="#F1F1F1" height="46.2969" rx="2.5" ry="2.5" style="stroke:#181818;stroke-width:0.5;" width="69" x="393.5" y="805"/><rect fill="#F1F1F1" height="10" style="stroke:#181818;stroke-width:0.5;" width="15" x="442.5" y="810"/><rect fill="#F1F1F1" height="2" style="stroke:#181818;stroke-width:0.5;" width="4" x="440.5" y="812"/><rect fill="#F1F1F1" height="2" style="stroke:#181818;stroke-width:0.5;" width="4" x="440.5" y="816"/><text fill="#000000" font-family="sans-serif" font-size="14" lengthAdjust="spacing" textLength="29" x="408.5" y="837.9951">json</text></g><!--entity log--><g id="elem_log"><rect fill="#F1F1F1" height="46.2969" rx="2.5" ry="2.5" style="stroke:#181818;stroke-width:0.5;" width="62" x="397" y="724"/><rect fill="#F1F1F1" height="10" style="stroke:#181818;stroke-width:0.5;" width="15" x="439" y="729"/><rect fill="#F1F1F1" height="2" style="stroke:#181818;stroke-width:0.5;" width="4" x="437" y="731"/><rect fill="#F1F1F1" height="2" style="stroke:#181818;stroke-width:0.5;" width="4" x="437" y="735"/><text fill="#000000" font-family="sans-serif" font-size="14" lengthAdjust="spacing" textLength="22" x="412" y="756.9951">log</text></g><!--entity report--><g id="elem_report"><rect fill="#F1F1F1" height="46.2969" rx="2.5" ry="2.5" style="stroke:#181818;stroke-width:0.5;" width="87" x="384.5" y="643"/><rect fill="#F1F1F1" height="10" style="stroke:#181818;stroke-width:0.5;" width="15" x="451.5" y="648"/><rect fill="#F1F1F1" height="2" style="stroke:#181818;stroke-width:0.5;" width="4" x="449.5" y="650"/><rect fill="#F1F1F1" height="2" style="stroke:#181818;stroke-width:0.5;" width="4" x="449.5" y="654"/><text fill="#000000" font-family="sans-serif" font-size="14" lengthAdjust="spacing" textLength="47" x="399.5" y="675.9951">report</text></g><!--entity stdBase--><g id="elem_stdBase"><rect fill="#F1F1F1" height="46.2969" rx="2.5" ry="2.5" style="stroke:#181818;stroke-width:0.5;" width="97" x="569.5" y="805"/><rect fill="#F1F1F1" height="10" style="stroke:#181818;stroke-width:0.5;" width="15" x="646.5" y="810"/><rect fill="#F1F1F1" height="2" style="stroke:#181818;stroke-width:0.5;" width="4" x="644.5" y="812"/><rect fill="#F1F1F1" height="2" style="stroke:#181818;stroke-width:0.5;" width="4" x="644.5" y="816"/><text fill="#000000" font-family="sans-serif" font-size="14" lengthAdjust="spacing" textLength="57" x="584.5" y="837.9951">stdBase</text></g><!--entity string--><g id="elem_string"><rect fill="#F1F1F1" height="46.2969" rx="2.5" ry="2.5" style="stroke:#181818;stroke-width:0.5;" width="82" x="577" y="724"/><rect fill="#F1F1F1" height="10" style="stroke:#181818;stroke-width:0.5;" width="15" x="639" y="729"/><rect fill="#F1F1F1" height="2" style="stroke:#181818;stroke-width:0.5;" width="4" x="637" y="731"/><rect fill="#F1F1F1" height="2" style="stroke:#181818;stroke-width:0.5;" width="4" x="637" y="735"/><text fill="#000000" font-family="sans-serif" font-size="14" lengthAdjust="spacing" textLength="42" x="592" y="756.9951">string</text></g><!--entity test--><g id="elem_test"><rect fill="#F1F1F1" height="46.2969" rx="2.5" ry="2.5" style="stroke:#181818;stroke-width:0.5;" width="70" x="583" y="643"/><rect fill="#F1F1F1" height="10" style="stroke:#181818;stroke-width:0.5;" width="15" x="633" y="648"/><rect fill="#F1F1F1" height="2" style="stroke:#181818;stroke-width:0.5;" width="4" x="631" y="650"/><rect fill="#F1F1F1" height="2" style="stroke:#181818;stroke-width:0.5;" width="4" x="631" y="654"/><text fill="#000000" font-family="sans-serif" font-size="14" lengthAdjust="spacing" textLength="30" x="598" y="675.9951">test</text></g><!--entity time--><g id="elem_time"><rect fill="#F1F1F1" height="46.2969" rx="2.5" ry="2.5" style="stroke:#181818;stroke-width:0.5;" width="74" x="746" y="805"/><rect fill="#F1F1F1" height="10" style="stroke:#181818;stroke-width:0.5;" width="15" x="800" y="810"/><rect fill="#F1F1F1" height="2" style="stroke:#181818;stroke-width:0.5;" width="4" x="798" y="812"/><rect fill="#F1F1F1" height="2" style="stroke:#181818;stroke-width:0.5;" width="4" x="798" y="816"/><text fill="#000000" font-family="sans-serif" font-size="14" lengthAdjust="spacing" textLength="34" x="761" y="837.9951">time</text></g><!--entity usage--><g id="elem_usage"><rect fill="#F1F1F1" height="46.2969" rx="2.5" ry="2.5" style="stroke:#181818;stroke-width:0.5;" width="81" x="742.5" y="724"/><rect fill="#F1F1F1" height="10" style="stroke:#181818;stroke-width:0.5;" width="15" x="803.5" y="729"/><rect fill="#F1F1F1" height="2" style="stroke:#181818;stroke-width:0.5;" width="4" x="801.5" y="731"/><rect fill="#F1F1F1" height="2" style="stroke:#181818;stroke-width:0.5;" width="4" x="801.5" y="735"/><text fill="#000000" font-family="sans-serif" font-size="14" lengthAdjust="spacing" textLength="41" x="757.5" y="756.9951">usage</text></g><!--entity iCTS--><g id="elem_iCTS"><rect fill="#F1F1F1" height="46.2969" rx="2.5" ry="2.5" style="stroke:#181818;stroke-width:0.5;" width="72" x="152" y="1228"/><rect fill="#F1F1F1" height="10" style="stroke:#181818;stroke-width:0.5;" width="15" x="204" y="1233"/><rect fill="#F1F1F1" height="2" style="stroke:#181818;stroke-width:0.5;" width="4" x="202" y="1235"/><rect fill="#F1F1F1" height="2" style="stroke:#181818;stroke-width:0.5;" width="4" x="202" y="1239"/><text fill="#000000" font-family="sans-serif" font-size="14" lengthAdjust="spacing" textLength="32" x="167" y="1260.9951">iCTS</text></g><!--entity iDRC--><g id="elem_iDRC"><rect fill="#F1F1F1" height="46.2969" rx="2.5" ry="2.5" style="stroke:#181818;stroke-width:0.5;" width="75" x="150.5" y="1147"/><rect fill="#F1F1F1" height="10" style="stroke:#181818;stroke-width:0.5;" width="15" x="205.5" y="1152"/><rect fill="#F1F1F1" height="2" style="stroke:#181818;stroke-width:0.5;" width="4" x="203.5" y="1154"/><rect fill="#F1F1F1" height="2" style="stroke:#181818;stroke-width:0.5;" width="4" x="203.5" y="1158"/><text fill="#000000" font-family="sans-serif" font-size="14" lengthAdjust="spacing" textLength="35" x="165.5" y="1179.9951">iDRC</text></g><!--entity iECO--><g id="elem_iECO"><rect fill="#F1F1F1" height="46.2969" rx="2.5" ry="2.5" style="stroke:#181818;stroke-width:0.5;" width="74" x="151" y="1066"/><rect fill="#F1F1F1" height="10" style="stroke:#181818;stroke-width:0.5;" width="15" x="205" y="1071"/><rect fill="#F1F1F1" height="2" style="stroke:#181818;stroke-width:0.5;" width="4" x="203" y="1073"/><rect fill="#F1F1F1" height="2" style="stroke:#181818;stroke-width:0.5;" width="4" x="203" y="1077"/><text fill="#000000" font-family="sans-serif" font-size="14" lengthAdjust="spacing" textLength="34" x="166" y="1098.9951">iECO</text></g><!--entity iFP--><g id="elem_iFP"><rect fill="#F1F1F1" height="46.2969" rx="2.5" ry="2.5" style="stroke:#181818;stroke-width:0.5;" width="61" x="157.5" y="985"/><rect fill="#F1F1F1" height="10" style="stroke:#181818;stroke-width:0.5;" width="15" x="198.5" y="990"/><rect fill="#F1F1F1" height="2" style="stroke:#181818;stroke-width:0.5;" width="4" x="196.5" y="992"/><rect fill="#F1F1F1" height="2" style="stroke:#181818;stroke-width:0.5;" width="4" x="196.5" y="996"/><text fill="#000000" font-family="sans-serif" font-size="14" lengthAdjust="spacing" textLength="21" x="172.5" y="1017.9951">iFP</text></g><!--entity iIR--><g id="elem_iIR"><rect fill="#F1F1F1" height="46.2969" rx="2.5" ry="2.5" style="stroke:#181818;stroke-width:0.5;" width="58" x="399" y="1228"/><rect fill="#F1F1F1" height="10" style="stroke:#181818;stroke-width:0.5;" width="15" x="437" y="1233"/><rect fill="#F1F1F1" height="2" style="stroke:#181818;stroke-width:0.5;" width="4" x="435" y="1235"/><rect fill="#F1F1F1" height="2" style="stroke:#181818;stroke-width:0.5;" width="4" x="435" y="1239"/><text fill="#000000" font-family="sans-serif" font-size="14" lengthAdjust="spacing" textLength="18" x="414" y="1260.9951">iIR</text></g><!--entity iLO--><g id="elem_iLO"><rect fill="#F1F1F1" height="46.2969" rx="2.5" ry="2.5" style="stroke:#181818;stroke-width:0.5;" width="63" x="396.5" y="1147"/><rect fill="#F1F1F1" height="10" style="stroke:#181818;stroke-width:0.5;" width="15" x="439.5" y="1152"/><rect fill="#F1F1F1" height="2" style="stroke:#181818;stroke-width:0.5;" width="4" x="437.5" y="1154"/><rect fill="#F1F1F1" height="2" style="stroke:#181818;stroke-width:0.5;" width="4" x="437.5" y="1158"/><text fill="#000000" font-family="sans-serif" font-size="14" lengthAdjust="spacing" textLength="23" x="411.5" y="1179.9951">iLO</text></g><!--entity iNO--><g id="elem_iNO"><rect fill="#F1F1F1" height="46.2969" rx="2.5" ry="2.5" style="stroke:#181818;stroke-width:0.5;" width="65" x="395.5" y="1066"/><rect fill="#F1F1F1" height="10" style="stroke:#181818;stroke-width:0.5;" width="15" x="440.5" y="1071"/><rect fill="#F1F1F1" height="2" style="stroke:#181818;stroke-width:0.5;" width="4" x="438.5" y="1073"/><rect fill="#F1F1F1" height="2" style="stroke:#181818;stroke-width:0.5;" width="4" x="438.5" y="1077"/><text fill="#000000" font-family="sans-serif" font-size="14" lengthAdjust="spacing" textLength="25" x="410.5" y="1098.9951">iNO</text></g><!--entity iPDN--><g id="elem_iPDN"><rect fill="#F1F1F1" height="46.2969" rx="2.5" ry="2.5" style="stroke:#181818;stroke-width:0.5;" width="74" x="391" y="985"/><rect fill="#F1F1F1" height="10" style="stroke:#181818;stroke-width:0.5;" width="15" x="445" y="990"/><rect fill="#F1F1F1" height="2" style="stroke:#181818;stroke-width:0.5;" width="4" x="443" y="992"/><rect fill="#F1F1F1" height="2" style="stroke:#181818;stroke-width:0.5;" width="4" x="443" y="996"/><text fill="#000000" font-family="sans-serif" font-size="14" lengthAdjust="spacing" textLength="34" x="406" y="1017.9951">iPDN</text></g><!--entity iPL--><g id="elem_iPL"><rect fill="#F1F1F1" height="46.2969" rx="2.5" ry="2.5" style="stroke:#181818;stroke-width:0.5;" width="61" x="587.5" y="1228"/><rect fill="#F1F1F1" height="10" style="stroke:#181818;stroke-width:0.5;" width="15" x="628.5" y="1233"/><rect fill="#F1F1F1" height="2" style="stroke:#181818;stroke-width:0.5;" width="4" x="626.5" y="1235"/><rect fill="#F1F1F1" height="2" style="stroke:#181818;stroke-width:0.5;" width="4" x="626.5" y="1239"/><text fill="#000000" font-family="sans-serif" font-size="14" lengthAdjust="spacing" textLength="21" x="602.5" y="1260.9951">iPL</text></g><!--entity iPW--><g id="elem_iPW"><rect fill="#F1F1F1" height="46.2969" rx="2.5" ry="2.5" style="stroke:#181818;stroke-width:0.5;" width="67" x="584.5" y="1147"/><rect fill="#F1F1F1" height="10" style="stroke:#181818;stroke-width:0.5;" width="15" x="631.5" y="1152"/><rect fill="#F1F1F1" height="2" style="stroke:#181818;stroke-width:0.5;" width="4" x="629.5" y="1154"/><rect fill="#F1F1F1" height="2" style="stroke:#181818;stroke-width:0.5;" width="4" x="629.5" y="1158"/><text fill="#000000" font-family="sans-serif" font-size="14" lengthAdjust="spacing" textLength="27" x="599.5" y="1179.9951">iPW</text></g><!--entity iRT--><g id="elem_iRT"><rect fill="#F1F1F1" height="46.2969" rx="2.5" ry="2.5" style="stroke:#181818;stroke-width:0.5;" width="63" x="586.5" y="1066"/><rect fill="#F1F1F1" height="10" style="stroke:#181818;stroke-width:0.5;" width="15" x="629.5" y="1071"/><rect fill="#F1F1F1" height="2" style="stroke:#181818;stroke-width:0.5;" width="4" x="627.5" y="1073"/><rect fill="#F1F1F1" height="2" style="stroke:#181818;stroke-width:0.5;" width="4" x="627.5" y="1077"/><text fill="#000000" font-family="sans-serif" font-size="14" lengthAdjust="spacing" textLength="23" x="601.5" y="1098.9951">iRT</text></g><!--entity iSTA--><g id="elem_iSTA"><rect fill="#F1F1F1" height="46.2969" rx="2.5" ry="2.5" style="stroke:#181818;stroke-width:0.5;" width="72" x="582" y="985"/><rect fill="#F1F1F1" height="10" style="stroke:#181818;stroke-width:0.5;" width="15" x="634" y="990"/><rect fill="#F1F1F1" height="2" style="stroke:#181818;stroke-width:0.5;" width="4" x="632" y="992"/><rect fill="#F1F1F1" height="2" style="stroke:#181818;stroke-width:0.5;" width="4" x="632" y="996"/><text fill="#000000" font-family="sans-serif" font-size="14" lengthAdjust="spacing" textLength="32" x="597" y="1017.9951">iSTA</text></g><!--entity iTM--><g id="elem_iTM"><rect fill="#F1F1F1" height="46.2969" rx="2.5" ry="2.5" style="stroke:#181818;stroke-width:0.5;" width="65" x="750.5" y="1228"/><rect fill="#F1F1F1" height="10" style="stroke:#181818;stroke-width:0.5;" width="15" x="795.5" y="1233"/><rect fill="#F1F1F1" height="2" style="stroke:#181818;stroke-width:0.5;" width="4" x="793.5" y="1235"/><rect fill="#F1F1F1" height="2" style="stroke:#181818;stroke-width:0.5;" width="4" x="793.5" y="1239"/><text fill="#000000" font-family="sans-serif" font-size="14" lengthAdjust="spacing" textLength="25" x="765.5" y="1260.9951">iTM</text></g><!--entity iTO--><g id="elem_iTO"><rect fill="#F1F1F1" height="46.2969" rx="2.5" ry="2.5" style="stroke:#181818;stroke-width:0.5;" width="64" x="751" y="1147"/><rect fill="#F1F1F1" height="10" style="stroke:#181818;stroke-width:0.5;" width="15" x="795" y="1152"/><rect fill="#F1F1F1" height="2" style="stroke:#181818;stroke-width:0.5;" width="4" x="793" y="1154"/><rect fill="#F1F1F1" height="2" style="stroke:#181818;stroke-width:0.5;" width="4" x="793" y="1158"/><text fill="#000000" font-family="sans-serif" font-size="14" lengthAdjust="spacing" textLength="24" x="766" y="1179.9951">iTO</text></g><!--entity clustering--><g id="elem_clustering"><rect fill="#F1F1F1" height="46.2969" rx="2.5" ry="2.5" style="stroke:#181818;stroke-width:0.5;" width="111" x="132.5" y="1511"/><rect fill="#F1F1F1" height="10" style="stroke:#181818;stroke-width:0.5;" width="15" x="223.5" y="1516"/><rect fill="#F1F1F1" height="2" style="stroke:#181818;stroke-width:0.5;" width="4" x="221.5" y="1518"/><rect fill="#F1F1F1" height="2" style="stroke:#181818;stroke-width:0.5;" width="4" x="221.5" y="1522"/><text fill="#000000" font-family="sans-serif" font-size="14" lengthAdjust="spacing" textLength="71" x="147.5" y="1543.9951">clustering</text></g><!--entity partition--><g id="elem_partition"><rect fill="#F1F1F1" height="46.2969" rx="2.5" ry="2.5" style="stroke:#181818;stroke-width:0.5;" width="104" x="136" y="1430"/><rect fill="#F1F1F1" height="10" style="stroke:#181818;stroke-width:0.5;" width="15" x="220" y="1435"/><rect fill="#F1F1F1" height="2" style="stroke:#181818;stroke-width:0.5;" width="4" x="218" y="1437"/><rect fill="#F1F1F1" height="2" style="stroke:#181818;stroke-width:0.5;" width="4" x="218" y="1441"/><text fill="#000000" font-family="sans-serif" font-size="14" lengthAdjust="spacing" textLength="64" x="151" y="1462.9951">partition</text></g><!--entity qudratic_programming--><g id="elem_qudratic_programming"><rect fill="#F1F1F1" height="46.2969" rx="2.5" ry="2.5" style="stroke:#181818;stroke-width:0.5;" width="204" x="86" y="1349"/><rect fill="#F1F1F1" height="10" style="stroke:#181818;stroke-width:0.5;" width="15" x="270" y="1354"/><rect fill="#F1F1F1" height="2" style="stroke:#181818;stroke-width:0.5;" width="4" x="268" y="1356"/><rect fill="#F1F1F1" height="2" style="stroke:#181818;stroke-width:0.5;" width="4" x="268" y="1360"/><text fill="#000000" font-family="sans-serif" font-size="14" lengthAdjust="spacing" textLength="164" x="101" y="1381.9951">qudratic_programming</text></g><!--entity steiner_forest--><g id="elem_steiner_forest"><rect fill="#F1F1F1" height="46.2969" rx="2.5" ry="2.5" style="stroke:#181818;stroke-width:0.5;" width="142" x="357" y="1511"/><rect fill="#F1F1F1" height="10" style="stroke:#181818;stroke-width:0.5;" width="15" x="479" y="1516"/><rect fill="#F1F1F1" height="2" style="stroke:#181818;stroke-width:0.5;" width="4" x="477" y="1518"/><rect fill="#F1F1F1" height="2" style="stroke:#181818;stroke-width:0.5;" width="4" x="477" y="1522"/><text fill="#000000" font-family="sans-serif" font-size="14" lengthAdjust="spacing" textLength="102" x="372" y="1543.9951">steiner_forest</text></g><!--entity two_pin_routing--><g id="elem_two_pin_routing"><rect fill="#F1F1F1" height="46.2969" rx="2.5" ry="2.5" style="stroke:#181818;stroke-width:0.5;" width="156" x="350" y="1430"/><rect fill="#F1F1F1" height="10" style="stroke:#181818;stroke-width:0.5;" width="15" x="486" y="1435"/><rect fill="#F1F1F1" height="2" style="stroke:#181818;stroke-width:0.5;" width="4" x="484" y="1437"/><rect fill="#F1F1F1" height="2" style="stroke:#181818;stroke-width:0.5;" width="4" x="484" y="1441"/><text fill="#000000" font-family="sans-serif" font-size="14" lengthAdjust="spacing" textLength="116" x="365" y="1462.9951">two_pin_routing</text></g><!--entity data_manager--><g id="elem_data_manager"><rect fill="#F1F1F1" height="46.2969" rx="2.5" ry="2.5" style="stroke:#181818;stroke-width:0.5;" width="142" x="117" y="1969"/><rect fill="#F1F1F1" height="10" style="stroke:#181818;stroke-width:0.5;" width="15" x="239" y="1974"/><rect fill="#F1F1F1" height="2" style="stroke:#181818;stroke-width:0.5;" width="4" x="237" y="1976"/><rect fill="#F1F1F1" height="2" style="stroke:#181818;stroke-width:0.5;" width="4" x="237" y="1980"/><text fill="#000000" font-family="sans-serif" font-size="14" lengthAdjust="spacing" textLength="102" x="132" y="2001.9951">data_manager</text></g><!--entity evaluator--><g id="elem_evaluator"><rect fill="#F1F1F1" height="46.2969" rx="2.5" ry="2.5" style="stroke:#181818;stroke-width:0.5;" width="107" x="134.5" y="1888"/><rect fill="#F1F1F1" height="10" style="stroke:#181818;stroke-width:0.5;" width="15" x="221.5" y="1893"/><rect fill="#F1F1F1" height="2" style="stroke:#181818;stroke-width:0.5;" width="4" x="219.5" y="1895"/><rect fill="#F1F1F1" height="2" style="stroke:#181818;stroke-width:0.5;" width="4" x="219.5" y="1899"/><text fill="#000000" font-family="sans-serif" font-size="14" lengthAdjust="spacing" textLength="67" x="149.5" y="1920.9951">evaluator</text></g><!--entity file_manager--><g id="elem_file_manager"><rect fill="#F1F1F1" height="46.2969" rx="2.5" ry="2.5" style="stroke:#181818;stroke-width:0.5;" width="133" x="121.5" y="1807"/><rect fill="#F1F1F1" height="10" style="stroke:#181818;stroke-width:0.5;" width="15" x="234.5" y="1812"/><rect fill="#F1F1F1" height="2" style="stroke:#181818;stroke-width:0.5;" width="4" x="232.5" y="1814"/><rect fill="#F1F1F1" height="2" style="stroke:#181818;stroke-width:0.5;" width="4" x="232.5" y="1818"/><text fill="#000000" font-family="sans-serif" font-size="14" lengthAdjust="spacing" textLength="93" x="136.5" y="1839.9951">file_manager</text></g><!--entity flow--><g id="elem_flow"><rect fill="#F1F1F1" height="46.2969" rx="2.5" ry="2.5" style="stroke:#181818;stroke-width:0.5;" width="70" x="393" y="1969"/><rect fill="#F1F1F1" height="10" style="stroke:#181818;stroke-width:0.5;" width="15" x="443" y="1974"/><rect fill="#F1F1F1" height="2" style="stroke:#181818;stroke-width:0.5;" width="4" x="441" y="1976"/><rect fill="#F1F1F1" height="2" style="stroke:#181818;stroke-width:0.5;" width="4" x="441" y="1980"/><text fill="#000000" font-family="sans-serif" font-size="14" lengthAdjust="spacing" textLength="30" x="408" y="2001.9951">flow</text></g><!--entity service--><g id="elem_service"><rect fill="#F1F1F1" height="46.2969" rx="2.5" ry="2.5" style="stroke:#181818;stroke-width:0.5;" width="91" x="382.5" y="1888"/><rect fill="#F1F1F1" height="10" style="stroke:#181818;stroke-width:0.5;" width="15" x="453.5" y="1893"/><rect fill="#F1F1F1" height="2" style="stroke:#181818;stroke-width:0.5;" width="4" x="451.5" y="1895"/><rect fill="#F1F1F1" height="2" style="stroke:#181818;stroke-width:0.5;" width="4" x="451.5" y="1899"/><text fill="#000000" font-family="sans-serif" font-size="14" lengthAdjust="spacing" textLength="51" x="397.5" y="1920.9951">service</text></g><!--entity tool_manager--><g id="elem_tool_manager"><rect fill="#F1F1F1" height="46.2969" rx="2.5" ry="2.5" style="stroke:#181818;stroke-width:0.5;" width="139" x="358.5" y="1807"/><rect fill="#F1F1F1" height="10" style="stroke:#181818;stroke-width:0.5;" width="15" x="477.5" y="1812"/><rect fill="#F1F1F1" height="2" style="stroke:#181818;stroke-width:0.5;" width="4" x="475.5" y="1814"/><rect fill="#F1F1F1" height="2" style="stroke:#181818;stroke-width:0.5;" width="4" x="475.5" y="1818"/><text fill="#000000" font-family="sans-serif" font-size="14" lengthAdjust="spacing" textLength="99" x="373.5" y="1839.9951">tool_manager</text></g><!--entity database--><g id="elem_database"><rect fill="#F1F1F1" height="46.2969" rx="2.5" ry="2.5" style="stroke:#181818;stroke-width:0.5;" width="106" x="135" y="2154"/><rect fill="#F1F1F1" height="10" style="stroke:#181818;stroke-width:0.5;" width="15" x="221" y="2159"/><rect fill="#F1F1F1" height="2" style="stroke:#181818;stroke-width:0.5;" width="4" x="219" y="2161"/><rect fill="#F1F1F1" height="2" style="stroke:#181818;stroke-width:0.5;" width="4" x="219" y="2165"/><text fill="#000000" font-family="sans-serif" font-size="14" lengthAdjust="spacing" textLength="66" x="150" y="2186.9951">database</text></g><!--entity scripts--><g id="elem_scripts"><rect fill="#F1F1F1" height="46.2969" rx="2.5" ry="2.5" style="stroke:#181818;stroke-width:0.5;" width="89" x="383.5" y="2154"/><rect fill="#F1F1F1" height="10" style="stroke:#181818;stroke-width:0.5;" width="15" x="452.5" y="2159"/><rect fill="#F1F1F1" height="2" style="stroke:#181818;stroke-width:0.5;" width="4" x="450.5" y="2161"/><rect fill="#F1F1F1" height="2" style="stroke:#181818;stroke-width:0.5;" width="4" x="450.5" y="2165"/><text fill="#000000" font-family="sans-serif" font-size="14" lengthAdjust="spacing" textLength="49" x="398.5" y="2186.9951">scripts</text></g><!--link apps to interface--><!--link third_party to utility--><!--link analysis to evaluation--><!--link database to scripts--><!--link ???? to ????--><g id="link_&#29992;&#25143;&#20132;&#20114;_&#19994;&#21153;&#27169;&#22359;"><path d="M320.5,459.1411 C320.5,459.6016 320.5,460.079 320.5,460.5729 C320.5,461.5608 320.5,462.6152 320.5,463.7349 C320.5,468.2136 320.5,473.7374 320.5,480.2316 C320.5,483.4787 320.5,486.9684 320.5,490.6914 C320.5,492.5529 320.5,494.4727 320.5,496.4496 C320.5,496.9439 320.5,491.4417 320.5,491.943 " fill="none" id="&#29992;&#25143;&#20132;&#20114;-to-&#19994;&#21153;&#27169;&#22359;" style="stroke:#181818;stroke-width:1.0;"/><polygon fill="#181818" points="320.5,497.943,324.5,488.943,320.5,492.943,316.5,488.943,320.5,497.943" style="stroke:#181818;stroke-width:1.0;"/></g><!--link ???? to ????--><g id="link_&#19994;&#21153;&#27169;&#22359;_&#25968;&#25454;&#35775;&#23384;"><path d="M101.5,1681.1457 C101.5,1681.6244 101.5,1682.1228 101.5,1682.6405 C101.5,1684.7114 101.5,1687.0918 101.5,1689.7578 C101.5,1695.0898 101.5,1701.5645 101.5,1708.9912 C101.5,1712.7046 101.5,1710.656 101.5,1714.8217 " fill="none" id="&#19994;&#21153;&#27169;&#22359;-to-&#25968;&#25454;&#35775;&#23384;" style="stroke:#181818;stroke-width:1.0;"/><polygon fill="#181818" points="101.5,1720.8217,105.5,1711.8217,101.5,1715.8217,97.5,1711.8217,101.5,1720.8217" style="stroke:#181818;stroke-width:1.0;"/></g><!--link ???? to ???--><g id="link_&#25968;&#25454;&#35775;&#23384;_&#25968;&#25454;&#28304;"><path d="M250.5,2071.2959 C250.5,2071.6054 250.5,2071.9227 250.5,2072.2475 C250.5,2072.897 250.5,2073.5768 250.5,2074.2854 C250.5,2075.7026 250.5,2077.2354 250.5,2078.873 C250.5,2082.1484 250.5,2085.8438 250.5,2089.875 C250.5,2093.9063 250.5,2098.2734 250.5,2102.8926 C250.5,2105.2021 250.5,2107.5747 250.5,2109.9998 C250.5,2110.3029 250.5,2104.6068 250.5,2104.9116 " fill="none" id="&#25968;&#25454;&#35775;&#23384;-to-&#25968;&#25454;&#28304;" style="stroke:#181818;stroke-width:1.0;"/><polygon fill="#181818" points="250.5,2110.9116,254.5,2101.9116,250.5,2105.9116,246.5,2101.9116,250.5,2110.9116" style="stroke:#181818;stroke-width:1.0;"/></g><!--SRC=[ZPN1RjGm48RlVegymBu2Kjaj4b9fg-rA712AJE8aGntRsCvM4UeH2LL2GWW4Gk9GYKDxeE86sWEyp6xeO-1jawsJpGHyo26V_OyzC_vjZa4egcaUS13Cbee5KjjC4iuI6rWPQ4Wp6yIWMMH12a8KZOvfoWBOdUm4BqdWHlFhp_kBwlMFvUBhSl6kHkiHoLn9mOGDg5A6RFvlb8HbEg4HyzQqrqLI990YC2q08Qfq9n48D1dZ764skYEdvFRREkdov-VLsNbrSRxwyh7_f8Boqe3fGMnEUK5lazbDnVMlLwkpootTpkuoq77egcPBqfhIg1GMEDYo8z0MUMuwcMbZBjC1gfboNJ8mmTZuFZLiS8O6CHJ3hq4FPMOeleLyA7XXN9fQ_DIhzrPLf6Bwfc1eIM0yEyBGP3h6qExu04CF3Z7oS8gHFLHj7oM7atqKxQ7aCKQcCumSpNOmD7k4aeEXkXZ9vqpZhi4BuvobssQUFxWh13SNiP-_AE9rtQDGQPawZynnAHV8-QSE4wcxdUbrvOaC5OXGItT3FQbUYwa-VA_UN5rV_Lvz- -GTiS6AK-k2vUZfOsffc3iVIfb6fjHE936U06V_a4YuF27_RH9UlfYUGyImH4d9jm8FPAbQlErruNKEdla-v6qWqg2igJMTwlfj2aPFCeXZ9fwExbubulcjFw5sMRUozdeV-YRVxCBdJNZIUZD7zrel2sazCmxwFK5Q3RA1BXL_0G00]--></g></svg>