<?xml version="1.0" encoding="us-ascii" standalone="no"?><svg xmlns="http://www.w3.org/2000/svg" xmlns:xlink="http://www.w3.org/1999/xlink" contentStyleType="text/css" height="552px" preserveAspectRatio="none" style="width:265px;height:552px;background:#FFFFFF;" version="1.1" viewBox="0 0 265 552" width="265px" zoomAndPan="magnify"><defs/><g><ellipse cx="129" cy="20" fill="#222222" rx="10" ry="10" style="stroke:#222222;stroke-width:1.0;"/><rect fill="#F1F1F1" height="33.9688" rx="12.5" ry="12.5" style="stroke:#181818;stroke-width:0.5;" width="137" x="60.5" y="50"/><text fill="#000000" font-family="sans-serif" font-size="12" lengthAdjust="spacing" textLength="117" x="70.5" y="71.1387">&#25214;&#21040;&#25152;&#26377;&#21487;&#31227;&#21160;&#30340;cell</text><rect fill="#F1F1F1" height="33.9688" rx="12.5" ry="12.5" style="stroke:#181818;stroke-width:0.5;" width="168" x="45" y="103.9688"/><text fill="#000000" font-family="sans-serif" font-size="12" lengthAdjust="spacing" textLength="148" x="55" y="125.1074">&#23558;cell&#21015;&#34920;&#25353;&#29031;x&#36724;&#21319;&#24207;&#25490;&#24207;</text><rect fill="#F1F1F1" height="33.9688" rx="12.5" ry="12.5" style="stroke:#181818;stroke-width:0.5;" width="125" x="66.5" y="201.9375"/><text fill="#000000" font-family="sans-serif" font-size="12" lengthAdjust="spacing" textLength="105" x="76.5" y="223.0762">&#35745;&#31639;&#20986;cell&#25152;&#22312;&#30340;&#34892;</text><rect fill="#F1F1F1" height="47.9375" rx="12.5" ry="12.5" style="stroke:#181818;stroke-width:0.5;" width="128" x="65" y="255.9063"/><text fill="#000000" font-family="sans-serif" font-size="12" lengthAdjust="spacing" textLength="108" x="75" y="277.0449">&#25214;&#21040;&#35813;&#34892;&#26368;&#38752;&#24038;&#30340;&#65292;</text><text fill="#000000" font-family="sans-serif" font-size="12" lengthAdjust="spacing" textLength="103" x="75" y="291.0137">&#33021;&#23481;&#32435;&#35813;cell&#30340;site</text><rect fill="#F1F1F1" height="47.9375" rx="12.5" ry="12.5" style="stroke:#181818;stroke-width:0.5;" width="164" x="47" y="372.2461"/><text fill="#000000" font-family="sans-serif" font-size="12" lengthAdjust="spacing" textLength="144" x="57" y="393.3848">&#20174;&#35813;&#34892;&#24448;&#19978;&#21644;&#24448;&#19979;&#21516;&#26102;&#25628;&#32034;</text><text fill="#000000" font-family="sans-serif" font-size="12" lengthAdjust="spacing" textLength="139" x="57" y="407.3535">&#26368;&#24038;&#36793;&#30340;&#33021;&#23481;&#32435;cell&#30340;site</text><polygon fill="#F1F1F1" points="107,323.8438,151,323.8438,163,335.8438,151,347.8438,107,347.8438,95,335.8438,107,323.8438" style="stroke:#181818;stroke-width:0.5;"/><text fill="#000000" font-family="sans-serif" font-size="11" lengthAdjust="spacing" textLength="21" x="133" y="358.0542">yes</text><text fill="#000000" font-family="sans-serif" font-size="11" lengthAdjust="spacing" textLength="44" x="107" y="339.6519">&#34892;&#24050;&#28385;&#65311;</text><polygon fill="#F1F1F1" points="129,440.1836,141,452.1836,129,464.1836,117,452.1836,129,440.1836" style="stroke:#181818;stroke-width:0.5;"/><rect fill="#F1F1F1" height="33.9688" rx="12.5" ry="12.5" style="stroke:#181818;stroke-width:0.5;" width="111" x="73.5" y="484.1836"/><text fill="#000000" font-family="sans-serif" font-size="12" lengthAdjust="spacing" textLength="91" x="83.5" y="505.3223">&#23558;cell&#23433;&#25490;&#21040;site</text><polygon fill="#F1F1F1" points="97,157.9375,161,157.9375,173,169.9375,161,181.9375,97,181.9375,85,169.9375,97,157.9375" style="stroke:#181818;stroke-width:0.5;"/><text fill="#000000" font-family="sans-serif" font-size="11" lengthAdjust="spacing" textLength="64" x="97" y="173.7456">&#36941;&#21382;cell&#21015;&#34920;</text><ellipse cx="24" cy="212.9375" fill="none" rx="11" ry="11" style="stroke:#222222;stroke-width:1.0;"/><ellipse cx="24" cy="212.9375" fill="#222222" rx="6" ry="6" style="stroke:#111111;stroke-width:1.0;"/><line style="stroke:#181818;stroke-width:1.0;" x1="129" x2="129" y1="30" y2="50"/><polygon fill="#181818" points="125,40,129,50,133,40,129,44" style="stroke:#181818;stroke-width:1.0;"/><line style="stroke:#181818;stroke-width:1.0;" x1="129" x2="129" y1="83.9688" y2="103.9688"/><polygon fill="#181818" points="125,93.9688,129,103.9688,133,93.9688,129,97.9688" style="stroke:#181818;stroke-width:1.0;"/><line style="stroke:#181818;stroke-width:1.0;" x1="129" x2="129" y1="235.9063" y2="255.9063"/><polygon fill="#181818" points="125,245.9063,129,255.9063,133,245.9063,129,249.9063" style="stroke:#181818;stroke-width:1.0;"/><line style="stroke:#181818;stroke-width:1.0;" x1="129" x2="129" y1="347.8438" y2="372.2461"/><polygon fill="#181818" points="125,362.2461,129,372.2461,133,362.2461,129,366.2461" style="stroke:#181818;stroke-width:1.0;"/><line style="stroke:#181818;stroke-width:1.0;" x1="163" x2="221" y1="335.8438" y2="335.8438"/><polygon fill="#181818" points="217,386.2148,221,396.2148,225,386.2148,221,390.2148" style="stroke:#181818;stroke-width:1.0;"/><line style="stroke:#181818;stroke-width:1.0;" x1="221" x2="221" y1="335.8438" y2="452.1836"/><line style="stroke:#181818;stroke-width:1.0;" x1="221" x2="141" y1="452.1836" y2="452.1836"/><polygon fill="#181818" points="151,448.1836,141,452.1836,151,456.1836,147,452.1836" style="stroke:#181818;stroke-width:1.0;"/><line style="stroke:#181818;stroke-width:1.0;" x1="129" x2="129" y1="420.1836" y2="440.1836"/><polygon fill="#181818" points="125,430.1836,129,440.1836,133,430.1836,129,434.1836" style="stroke:#181818;stroke-width:1.0;"/><line style="stroke:#181818;stroke-width:1.0;" x1="129" x2="129" y1="303.8438" y2="323.8438"/><polygon fill="#181818" points="125,313.8438,129,323.8438,133,313.8438,129,317.8438" style="stroke:#181818;stroke-width:1.0;"/><line style="stroke:#181818;stroke-width:1.0;" x1="129" x2="129" y1="464.1836" y2="484.1836"/><polygon fill="#181818" points="125,474.1836,129,484.1836,133,474.1836,129,478.1836" style="stroke:#181818;stroke-width:1.0;"/><line style="stroke:#181818;stroke-width:1.0;" x1="129" x2="129" y1="181.9375" y2="201.9375"/><polygon fill="#181818" points="125,191.9375,129,201.9375,133,191.9375,129,195.9375" style="stroke:#181818;stroke-width:1.0;"/><line style="stroke:#181818;stroke-width:1.0;" x1="129" x2="129" y1="518.1523" y2="528.1523"/><line style="stroke:#181818;stroke-width:1.0;" x1="129" x2="239" y1="528.1523" y2="528.1523"/><polygon fill="#181818" points="235,352.7461,239,342.7461,243,352.7461,239,348.7461" style="stroke:#181818;stroke-width:1.0;"/><line style="stroke:#181818;stroke-width:1.0;" x1="239" x2="239" y1="169.9375" y2="528.1523"/><line style="stroke:#181818;stroke-width:1.0;" x1="239" x2="173" y1="169.9375" y2="169.9375"/><polygon fill="#181818" points="183,165.9375,173,169.9375,183,173.9375,179,169.9375" style="stroke:#181818;stroke-width:1.0;"/><line style="stroke:#181818;stroke-width:1.0;" x1="85" x2="24" y1="169.9375" y2="169.9375"/><line style="stroke:#181818;stroke-width:1.0;" x1="24" x2="24" y1="169.9375" y2="201.9375"/><polygon fill="#181818" points="20,191.9375,24,201.9375,28,191.9375,24,195.9375" style="stroke:#181818;stroke-width:1.0;"/><line style="stroke:#181818;stroke-width:1.0;" x1="129" x2="129" y1="137.9375" y2="157.9375"/><polygon fill="#181818" points="125,147.9375,129,157.9375,133,147.9375,129,151.9375" style="stroke:#181818;stroke-width:1.0;"/><!--SRC=[PP3FIiD04CRl-nGvfg-GF8tOBGs4AcP1lKNyqwIcQUab816DeEqf3LgiJTeyJMTtU-ehE9kbHN0Fox3pc-_xTZnsSi68nSCQWeA7Faz36Ct5j8B1J3pTdLBNjOa5nOEg84XaDkDHAEwdLtApW64VoX6F9tZRvBBhkDGmTpT3YF_WBMBWiMIUYJo1VgawQ0IfqfTPPEk-JY3dx_Z4Kt_t_0hB3oJswwW1vEq6yfKeln1H4jZo74RrjDCnJ9o3vIUliltwfMMmBkqPvZNrj7rZiQrYhG-rl_qPm4GNZp2EUFBDnwbOl1rfp801PBrIAG_U_unfh-rqz0SEEyf3jP2Wq102pLw8nyxEVm40]--></g></svg>